<?xml version="1.0" standalone="no"?>
<!DOCTYPE svg PUBLIC "-//W3C//DTD SVG 20010904//EN"
 "http://www.w3.org/TR/2001/REC-SVG-20010904/DTD/svg10.dtd">
<svg version="1.0" xmlns="http://www.w3.org/2000/svg"
 width="278.000000pt" height="181.000000pt" viewBox="0 0 278.000000 181.000000"
 preserveAspectRatio="xMidYMid meet">
<metadata>
Created by potrace 1.16, written by Peter Selinger 2001-2019
</metadata>
<g transform="translate(0.000000,181.000000) scale(0.100000,-0.100000)"
fill="#000000" stroke="none">
<path d="M1377 1769 c-22 -13 -22 -35 -1 -43 15 -6 14 -9 -6 -31 -25 -26 -42
-25 -34 3 3 9 -3 4 -12 -13 -10 -16 -19 -45 -20 -62 -2 -37 -28 -83 -48 -83
-12 0 -76 -124 -76 -148 0 -19 -10 -15 -64 27 -54 41 -132 91 -141 91 -4 0 -3
-4 0 -10 3 -6 -1 -7 -9 -4 -11 4 -19 -2 -25 -19 -9 -24 -71 -56 -71 -36 0 5
-7 9 -15 9 -8 0 -15 5 -15 10 0 6 -4 10 -9 10 -8 0 -6 -96 5 -177 3 -29 10
-43 20 -43 8 0 18 -8 21 -17 4 -10 15 -24 24 -31 10 -7 16 -19 13 -26 -4 -12
-12 -11 -45 3 -42 17 -54 37 -16 28 21 -6 21 -6 3 8 -13 10 -15 15 -6 15 7 0
10 3 6 7 -4 5 -14 0 -21 -11 -9 -11 -19 -15 -27 -10 -10 6 -10 4 1 -9 9 -12
10 -17 2 -17 -21 0 -25 32 -7 46 17 12 15 14 -19 29 -21 8 -40 13 -43 10 -3
-3 -1 -5 4 -5 6 0 19 -7 30 -15 18 -14 18 -15 0 -9 -16 6 -17 5 -6 -16 12 -21
11 -22 -18 -18 -17 2 -29 1 -26 -4 3 -4 0 -8 -5 -8 -6 0 -11 -6 -11 -12 0 -7
26 -24 58 -37 122 -53 221 -102 307 -154 l89 -54 22 61 c31 87 40 106 124 259
67 122 90 155 90 129 0 -5 31 -62 68 -128 58 -100 120 -232 146 -307 5 -17 9
-16 48 11 103 69 267 148 412 198 70 24 86 25 69 2 -5 -7 -15 -26 -21 -42
l-13 -28 33 21 c18 12 62 37 98 55 57 30 69 41 89 85 19 40 22 53 12 65 -10
12 -9 16 6 24 64 36 -71 6 -283 -62 -61 -20 -113 -36 -116 -36 -3 0 -2 17 3
38 5 20 8 78 8 127 l0 90 -35 23 c-20 12 -39 22 -43 22 -16 0 -172 -99 -221
-140 l-50 -42 -10 27 c-64 170 -142 308 -176 313 -16 2 -21 11 -22 34 -1 37
-3 39 -25 27z"/>
<path d="M1377 1209 c-20 -32 -87 -152 -120 -215 -102 -194 -136 -413 -86
-547 28 -73 85 -134 164 -172 l57 -28 53 26 c75 37 120 79 154 148 85 169 33
400 -167 743 -40 68 -40 69 -55 45z"/>
<path d="M2715 1193 c-83 -10 -237 -48 -304 -74 -94 -38 -143 -67 -206 -122
l-50 -45 -1 -113 c-3 -171 -38 -293 -110 -379 l-28 -32 44 7 c135 23 271 95
375 200 90 89 138 170 176 295 34 113 65 176 110 225 23 25 38 44 33 44 -5 -1
-22 -4 -39 -6z"/>
<path d="M1990 978 c-113 -48 -222 -119 -264 -170 -26 -33 -29 -44 -26 -90 6
-89 0 -190 -15 -250 -13 -53 -61 -158 -72 -158 -2 0 -1 6 3 13 5 9 4 9 -6 0
-26 -24 1 -27 47 -4 37 18 48 20 54 9 5 -7 9 -17 9 -22 0 -5 18 -6 41 -2 127
20 232 123 291 283 19 49 23 87 28 243 3 102 5 186 5 187 0 1 -43 -16 -95 -39z"/>
<path d="M694 973 c3 -21 6 -48 6 -60 0 -16 8 -25 25 -29 14 -3 22 -10 19 -15
-10 -17 17 -49 41 -49 16 0 25 -6 25 -15 0 -13 -17 -20 -42 -17 -3 1 -11 -5
-17 -12 -9 -11 -2 -22 34 -54 l46 -41 -23 -13 c-13 -7 -23 -20 -23 -28 0 -10
-12 -16 -33 -18 -32 -3 -33 -5 -27 -35 11 -50 63 -138 113 -189 48 -50 72 -60
72 -31 0 28 34 92 53 98 9 4 17 14 17 23 0 12 3 13 12 4 7 -7 20 -12 30 -12
18 0 18 -1 -2 -22 -22 -24 -26 -43 -10 -53 7 -4 7 -12 0 -25 -16 -31 -12 -35
13 -12 18 17 26 19 35 10 7 -7 12 -19 12 -27 1 -13 3 -12 15 3 14 18 15 18 21
2 4 -11 1 -22 -7 -27 -8 -5 -9 -9 -4 -9 6 0 3 -5 -5 -10 -11 -7 -2 -10 33 -10
26 0 47 2 47 4 0 2 -16 27 -35 56 -50 75 -58 110 -61 265 -2 77 -3 143 -3 147
-2 18 -80 94 -128 125 -52 33 -225 113 -245 113 -7 0 -8 -13 -4 -37z"/>
<path d="M2549 613 c-22 -41 -155 -158 -219 -192 -32 -17 -90 -38 -129 -47
-55 -13 -71 -20 -70 -33 1 -9 1 -19 0 -24 -1 -8 -61 20 -61 29 0 8 34 0 43
-11 5 -6 7 -4 5 5 -3 9 -21 15 -52 17 l-47 3 6 -38 c6 -33 5 -35 -8 -20 -18
23 -30 23 -52 -2 -18 -20 -17 -20 33 -20 40 0 52 -3 52 -16 0 -8 5 -12 10 -9
17 10 34 -6 19 -17 -10 -6 -7 -7 9 -3 18 5 22 2 22 -15 0 -18 -5 -21 -25 -18
-35 7 -32 -15 7 -52 24 -23 38 -30 57 -26 14 3 51 8 81 12 30 3 64 10 75 14
18 7 18 9 -8 19 -16 6 -32 11 -37 11 -9 0 -81 72 -76 77 2 2 30 -4 62 -12 56
-15 264 -19 264 -5 0 3 21 6 46 6 68 2 74 15 29 69 -20 25 -35 49 -31 52 3 3
41 7 85 7 77 1 79 2 63 20 -9 10 -34 31 -54 46 l-38 28 53 21 c28 12 67 34 86
50 l34 28 -34 20 c-29 18 -65 28 -165 48 -15 3 -25 -3 -35 -22z"/>
<path d="M1573 188 c-4 -7 -6 -21 -5 -30 2 -10 -2 -18 -8 -18 -7 0 -9 7 -6 16
5 12 1 14 -17 8 -62 -19 -63 -20 -59 -58 2 -20 9 -36 15 -36 6 0 7 -3 4 -7 -8
-7 11 -33 25 -33 5 0 4 9 -2 21 -17 31 -6 53 21 39 19 -11 20 -10 15 12 l-6
23 11 -22 c9 -17 21 -23 45 -23 18 0 36 5 40 12 5 7 3 8 -6 3 -10 -6 -12 -4
-7 9 4 10 7 23 8 29 0 7 5 1 10 -12 9 -23 10 -23 29 -6 11 10 18 21 15 24 -3
3 5 11 17 19 l23 13 -22 -4 c-16 -4 -24 1 -28 14 -5 15 -16 19 -55 19 -28 0
-52 -5 -57 -12z"/>
</g>
</svg>
