<?xml version="1.0" encoding="UTF-8" standalone="no"?>
<svg
   xmlns:dc="http://purl.org/dc/elements/1.1/"
   xmlns:cc="http://creativecommons.org/ns#"
   xmlns:rdf="http://www.w3.org/1999/02/22-rdf-syntax-ns#"
   xmlns:svg="http://www.w3.org/2000/svg"
   xmlns="http://www.w3.org/2000/svg"
   xmlns:sodipodi="http://sodipodi.sourceforge.net/DTD/sodipodi-0.dtd"
   xmlns:inkscape="http://www.inkscape.org/namespaces/inkscape"
   version="1.1"
   id="svg10"
   width="280"
   height="280"
   viewBox="0 0 280 280"
   sodipodi:docname="lotusSanti.svg"
   inkscape:version="1.0.1 (3bc2e813f5, 2020-09-07)">
  <metadata
     id="metadata16">
    <rdf:RDF>
      <cc:Work
         rdf:about="">
        <dc:format>image/svg+xml</dc:format>
        <dc:type
           rdf:resource="http://purl.org/dc/dcmitype/StillImage" />
        <dc:title></dc:title>
      </cc:Work>
    </rdf:RDF>
  </metadata>
  <defs
     id="defs14" />
  <sodipodi:namedview
     pagecolor="#ffffff"
     bordercolor="#666666"
     borderopacity="1"
     objecttolerance="10"
     gridtolerance="10"
     guidetolerance="10"
     inkscape:pageopacity="0"
     inkscape:pageshadow="2"
     inkscape:window-width="872"
     inkscape:window-height="480"
     id="namedview12"
     showgrid="false"
     inkscape:zoom="0.68059028"
     inkscape:cx="133.19823"
     inkscape:cy="113.80675"
     inkscape:window-x="0"
     inkscape:window-y="0"
     inkscape:window-maximized="0"
     inkscape:current-layer="g18" />
  <g
     inkscape:groupmode="layer"
     inkscape:label="Image"
     id="g18">
    <path
       style="fill:#000000"
       d="m 92.276522,185.31761 c -0.93652,-2.44054 0.12539,-3.8774 5.43408,-7.35276 6.240108,-4.08513 11.027708,-6.12207 14.645428,-6.23105 1.77422,-0.0534 0.78959,-0.52563 -2.71788,-1.30337 -8.62849,-1.91328 -15.058608,-6.0714 -16.522808,-10.68468 -0.63551,-2.00234 -1.10537,-2.09449 -7.32812,-1.43723 -3.65699,0.38625 -6.79907,1.10881 -6.9824,1.60569 -0.18334,0.49687 -2.20834,0.83598 -4.5,0.75357 -2.99084,-0.10755 -3.39062,-0.2674 -1.41667,-0.56642 1.5125,-0.22913 2.75,-0.82258 2.75,-1.31879 0,-0.4962 -0.5625,-0.71728 -1.25,-0.49128 -2.97003,0.97633 -18.37504,1.85079 -32.21427,1.82863 l -14.96427,-0.024 -3.53573,3.35216 c -3.57377,3.38825 -6.03573,4.30482 -6.03573,2.24709 0,-0.77551 -0.46364,-0.73766 -1.5,0.12244 -0.93107,0.77272 -1.5,0.84499 -1.5,0.19054 0,-1.62772 5.22141,-4.96517 8.53148,-5.4532 2.78164,-0.41012 2.74342,-0.44711 -0.60717,-0.58751 -4.73319,-0.19833 -7.92605,-3.6413 -8.62586,-9.30154 -0.43405,-3.51068 -1.5146,-5.35483 -5.6094404,-9.57355 -2.7894998,-2.87389 -4.7768498,-5.52023 -4.4163298,-5.88075 0.36052,-0.36053 2.5841598,-0.12438 4.9414098,0.52477 9.3676204,2.57967 17.5199704,4.08124 22.1579804,4.08124 4.21801,0 4.70553,-0.20157 3.62793,-1.5 -0.68469,-0.825 -1.81243,-1.5 -2.50608,-1.5 -3.77592,0 -25.4939204,-32.10177 -25.4939204,-37.68302 0,-1.79142 0.22344,-1.73778 6.9908204,1.67839 6.98557,3.5263 18.7036,8.25541 28.50918,11.5056 3.85,1.27613 8.8,3.07476 11,3.99694 l 4,1.6767 -5.20533,-5.33731 c -4.67443,-4.79294 -5.62023,-6.56121 -9.27329,-17.3373 -3.18162,-9.38542 -4.27884,-14.45579 -5.03585,-23.2712 -0.53235,-6.19916 -0.77685,-12.724162 -0.54334,-14.500004 1.35124,-10.275987 1.5735,-17.83096 0.57923,-19.68877 -1.03675,-1.93719 -0.14552,-2.83079 1.34086,-1.34442 0.38258,0.38259 1.24508,0.77699 1.91666,0.87645 0.67158,0.0995 4.14606,0.94652 7.72106,1.88237 3.575,0.93585 7.56708,1.91015 8.87128,2.16511 3.84576,0.75181 10.02861,4.257092 14.47813,8.208182 9.23899,8.20404 7.91505,7.925563 12.7488,2.681557 2.35205,-2.55167 4.83686,-5.397622 5.5218,-6.324338 0.99763,-1.349781 1.49743,-1.436301 2.51267,-0.434939 2.28262,2.251429 3.58697,1.323845 4.9216,-3.500002 2.502798,-9.04601 8.286598,-20.21141 10.483308,-20.23762 0.57068,-0.007 3.2068,2.18994 5.85804,4.88166 l 4.82045,4.89404 4.01254,-3.89404 c 4.26495,-4.13899 5.77138,-4.78147 5.77138,-2.46143 0,0.78794 0.8585,1.70509 1.90777,2.03812 1.04928,0.33303 3.80445,2.66315 6.1226,5.17804 3.1769,3.44654 4.41684,4.23748 5.0352,3.21189 5.82467,-9.66054 8.55138,-13.79565 9.11634,-13.8251 1.30741,-0.0682 5.29294,6.45911 6.98736,11.44353 l 1.70683,5.02091 2.09042,-4.70858 c 1.14973,-2.58972 2.51557,-4.97133 3.03519,-5.29248 0.51962,-0.32114 1.63483,-2.03808 2.47823,-3.81542 1.54515,-3.25616 14.03777,-16.6835198 15.52211,-16.6835198 0.43916,0 1.26636,2.1375 1.83824,4.7499998 0.57187,2.6125 1.62614,7.225 2.34282,10.25 0.80679,3.40535 1.27147,11.49423 1.22013,21.23923 l -0.0829,15.739222 4.37349,-3.583747 c 3.56916,-2.924664 4.64316,-3.359934 5.83984,-2.366779 0.80649,0.669331 1.46635,1.746865 1.46635,2.394521 0,0.647655 0.52436,1.701915 1.16524,2.342795 0.887,0.887 2.80181,-0.3786 8.01875,-5.299995 3.7694,-3.555885 7.4894,-6.465245 8.26664,-6.465245 0.77724,0 2.4092,1.39881 3.62659,3.108468 2.05689,2.888641 2.16785,3.82566 1.569,13.25 -0.67872,10.681234 -2.60194,19.628254 -4.82061,22.425924 -1.39223,1.75557 2.20606,-1.09803 11.39207,-9.03439 3.02386,-2.6125 5.89941,-4.78475 6.39011,-4.82722 0.49071,-0.0425 4.90769,-4.54247 9.81553,-10.000002 4.90784,-5.457528 9.29534,-9.92278 9.75,-9.92278 1.1529,0 1.03183,11.916172 -0.22271,21.921372 -1.09971,8.77037 -2.51337,12.45095 -6.84092,17.81096 -3.38224,4.18915 -16.93744,18.39165 -15.04904,15.76767 0.79163,-1.1 -1.03567,0.0677 -4.06067,2.59488 -3.025,2.52719 -7.37467,5.77145 -9.66594,7.20948 -5.10413,3.20342 -6.74096,5.35356 -3.24043,4.25662 1.3235,-0.41474 8.25637,-1.08918 15.40637,-1.49876 7.15,-0.40958 15.025,-1.24057 17.5,-1.84664 2.475,-0.60607 7.7222,-1.56917 11.66045,-2.14022 3.93824,-0.57106 9.26841,-1.75396 11.84482,-2.62867 2.5764,-0.87471 4.95555,-1.31921 5.28698,-0.98777 0.83624,0.83624 -2.45127,6.37061 -6.18162,10.40645 -5.33684,5.7739 -20.29591,16.82969 -28.16768,20.81789 l -7.53336,3.81674 4.29521,0.67588 c 2.36236,0.37173 6.7702,0.71612 9.7952,0.76531 7.34086,0.11937 10.48364,2.02226 3.375,2.0435 -6.30422,0.0188 -11.375,0.97295 -11.375,2.14031 0,0.48125 1.2,0.875 2.66667,0.875 3.70343,0 2.23061,1.10447 -2.66714,2.00009 -3.79883,0.69466 -3.9737,0.62885 -2.53964,-0.95577 0.84706,-0.93599 1.54011,-1.89519 1.54011,-2.13155 0,-0.38863 -14.25812,0.62506 -23,1.63521 -1.925,0.22244 -8.9,0.64307 -15.5,0.93475 -19.78261,0.87426 -22.68595,1.32562 -25.48298,3.96161 -1.38436,1.30466 -5.46041,3.97797 -9.05789,5.9407 -8.86919,4.83889 -19.04812,6.72038 -35.87177,6.63061 -11.98197,-0.0639 -14.2687,0.21353 -21.43833,2.60123 -9.03519,3.009 -14.920848,6.13429 -14.088528,7.48102 0.30665,0.49615 -0.17435,0.9021 -1.06887,0.9021 -1.17133,0 -1.44879,0.55961 -0.99163,2 0.73019,2.30061 -0.99306,2.76344 -1.86163,0.5 z m 29.111628,-16.18933 c -0.9625,-0.25152 -2.5375,-0.25152 -3.5,0 -0.9625,0.25153 -0.175,0.45733 1.75,0.45733 1.925,0 2.7125,-0.2058 1.75,-0.45733 z m 15.25,-1.33254 c -1.03184,-0.68186 0.37265,-0.80707 4.5,-0.40118 3.3,0.32453 6.48989,0.7355 7.08865,0.91325 0.59876,0.17776 2.62376,-0.0387 4.5,-0.48114 3.26165,-0.76904 3.19193,-0.80988 -1.58865,-0.93056 -2.75,-0.0694 -6.6643,-0.51286 -8.69845,-0.98542 -2.58903,-0.60147 -4.45878,-0.46474 -6.23314,0.45581 -1.39408,0.72326 -3.77978,1.50321 -5.30155,1.73323 -1.603,0.2423 -0.66365,0.4748 2.23314,0.55274 3.61216,0.0972 4.58365,-0.14062 3.5,-0.85673 z m -2.25,-3.00227 c 1.7875,-0.64433 3.25,-1.80249 3.25,-2.57369 0,-1.83284 0.32299,-1.7882 5.25053,0.72564 3.56633,1.81941 5.34795,2.05438 12.29208,1.62115 8.36121,-0.52164 15.76892,-2.98432 18.33818,-6.0965 1.27403,-1.54325 0.6982,-1.65982 -7.44777,-1.50774 -5.77846,0.10788 -8.07502,0.44357 -6.64744,0.97166 2.08335,0.77068 2.19461,3.88362 0.13882,3.88362 -0.4739,0 -0.60261,-0.675 -0.28603,-1.5 0.32999,-0.85994 -0.003,-1.54865 -0.78138,-1.61402 -5.33381,-0.44817 -7.37447,-0.93843 -7.6764,-1.84421 -0.52516,-1.57547 -1.84726,-1.24751 -1.84726,0.45823 0,0.825 0.7699,1.5 1.71089,1.5 2.22244,0 4.45209,2.57523 3.00434,3.46999 -0.57671,0.35642 -1.04856,0.16035 -1.04856,-0.43572 0,-0.59608 -1.125,-1.5115 -2.5,-2.03427 -1.375,-0.52277 -2.5,-1.43819 -2.5,-2.03427 0,-0.59607 -0.41628,-0.82649 -0.92506,-0.51204 -0.50879,0.31444 -2.08763,0.042 -3.50855,-0.60539 -1.85232,-0.84398 -3.21784,-0.87955 -4.82493,-0.12568 -2.93479,1.37666 -12.85317,1.62702 -10.74146,0.27113 0.825,-0.52972 1.1993,-0.97002 0.83179,-0.97844 -0.36752,-0.008 -1.45384,-0.31678 -2.41405,-0.68525 -1.11583,-0.42818 -1.50703,-0.28355 -1.08407,0.40081 0.40995,0.66332 -1.33504,1.54066 -4.58596,2.3057 -2.88624,0.67922 -7.01542,2.12392 -9.17595,3.21045 l -3.92823,1.97549 2.42823,1.94677 c 2.13564,1.71218 3.573,1.8884 11.92824,1.46243 5.225,-0.26639 10.9625,-1.01153 12.75,-1.65585 z m -7.75,-2.98391 c 0,-1.07009 5.94792,-4.37736 6.63563,-3.68965 0.24737,0.24737 -1.14445,1.39037 -3.09293,2.54001 -1.94849,1.14963 -3.5427,1.66697 -3.5427,1.14964 z m -19.69386,2.36344 c -0.38672,-1.00775 0.10949,-2.22156 1.28138,-3.13453 1.62981,-1.26971 1.65383,-1.40078 0.16248,-0.88678 -0.9625,0.33173 -1.75,0.22576 -1.75,-0.2355 0,-0.46126 2.1375,-1.44979 4.75,-2.19672 l 4.75,-1.35807 -6.93429,-0.7876 c -4.42547,-0.50266 -7.30177,-0.42013 -7.95,0.2281 -0.55864,0.55864 -1.777568,1.01571 -2.708718,1.01571 -4.91423,0 -1.4439,5.25372 5.238168,7.93005 3.38922,1.35747 3.86894,1.27026 3.16098,-0.57466 z m -64.544478,-7.04247 c -0.95609,-0.25029 -2.75609,-0.25937 -4,-0.0202 -1.24391,0.23919 -0.46166,0.44398 1.73834,0.45508 2.2,0.0111 3.21775,-0.18461 2.26166,-0.4349 z m -5.87209,-1.3618 c 1.89179,-0.0354 0.94201,-0.69145 -3.45003,-2.38298 -3.33325,-1.28375 -8.0446,-3.34633 -10.46967,-4.58351 l -4.4092,-2.24941 2.54328,3.38239 c 1.3988,1.86031 2.85654,4.22984 3.2394,5.26561 0.59481,1.60915 1.36846,1.79106 5.31596,1.25 2.54091,-0.34827 5.79452,-0.65522 7.23026,-0.6821 z m 15.83386,-2.08867 c -1.97661,-1.01406 -3.90424,-2.346 -4.28363,-2.95986 -0.44671,-0.72278 -0.91006,-0.76291 -1.3148,-0.11387 -0.67586,1.0838 -14.36753,-1.54345 -21.875,-4.19752 -6.6587,-2.35402 -4.98946,-0.80272 3.21529,2.98811 8.41995,3.89026 21.59739,7.32253 25.35525,6.60417 2.42852,-0.46425 2.39856,-0.52764 -1.09711,-2.32103 z m 14.52657,2.47527 c -0.6875,-0.27741 -1.8125,-0.27741 -2.5,0 -0.6875,0.27741 -0.125,0.50439 1.25,0.50439 1.375,0 1.9375,-0.22698 1.25,-0.50439 z m -13.75837,-6.02495 c -3.66625,-2.4595 -6.43333,-4.70441 -6.14905,-4.98868 0.28428,-0.28428 2.46099,0.81322 4.83714,2.43889 8.75945,5.99287 10.46983,6.49766 22.43525,6.62132 6.15718,0.0636 10.9861,-0.2218 10.73093,-0.6343 -0.25516,-0.4125 1.02512,-0.81386 2.84508,-0.89191 3.2487,-0.13931 3.2361,-0.15496 -0.69098,-0.85809 -2.2,-0.3939 -3.0625,-0.78005 -1.91667,-0.85809 1.14584,-0.078 2.08334,-0.74277 2.08334,-1.47715 0,-0.84184 -2.8022,-1.98436 -7.58334,-3.09189 -9.54408,-2.21084 -26.27629,-7.4812 -27.53333,-8.67253 -1.39188,-1.31913 -0.61921,-1.15209 7.02567,1.51886 8.09092,2.82679 26.05103,7.48677 28.9323,7.50685 1.09562,0.008 3.56703,0.25809 5.49203,0.55655 3.13772,0.4865 3.26711,0.42203 1.25,-0.62278 -1.2375,-0.641 -2.25,-1.54668 -2.25,-2.01263 0,-1.10508 0.0281,-1.10136 5.03026,0.66349 2.354948,0.83087 4.461708,1.33069 4.681688,1.1107 0.21999,-0.21998 -2.21271,-1.33171 -5.405988,-2.4705 -3.19328,-1.13879 -10.30596,-3.69362 -15.80596,-5.6774 -5.5,-1.98379 -11.47922,-3.80125 -13.28715,-4.03881 -3.41234,-0.44838 -8.98693,-3.00812 -15.50005,-7.11733 -2.08296,-1.31417 -4.28999,-2.07865 -4.90451,-1.69886 -0.73014,0.45125 -0.83366,0.23159 -0.29875,-0.63391 0.59434,-0.96167 0.36275,-1.14954 -0.8455,-0.68589 -0.94986,0.36449 -1.66404,0.15131 -1.66404,-0.49673 0,-0.62441 -0.29925,-0.83604 -0.665,-0.47029 -0.72041,0.72041 -6.35859,-2.35229 -15.835,-8.6298 l -6,-3.9746 4.96241,5.13637 c 2.72932,2.825 4.44338,5.13637 3.80901,5.13637 -0.63436,0 -1.4315,-0.45 -1.77142,-1 -0.33992,-0.55 -1.11122,-1 -1.714,-1 -0.60279,0 -0.23873,1.00475 0.80901,2.23277 1.88519,2.20956 1.8842,2.21794 -0.095,0.80673 -1.1,-0.78431 -4.2088,-3.47656 -6.90845,-5.98276 l -4.90845,-4.55674 3.28822,5.96479 c 3.88353,7.04468 9.75056,14.31216 12.17552,15.08181 0.94804,0.3009 6.14034,4.91948 11.53844,10.2635 10.20121,10.09904 14.23463,13.31442 15.6435,12.47078 0.45582,-0.27296 -2.17089,-2.50861 -5.83715,-4.96811 z m 14.39092,0.78268 c -7.3758,-2.35948 -15.64628,-7.15462 -19.38255,-11.2378 l -3,-3.27855 3.5,2.71138 c 6.01711,4.66133 11.77482,7.82405 18.5598,10.1949 10.17163,3.55425 10.43004,4.84334 0.32275,1.61007 z m 119.367448,3.24227 c -0.6875,-0.27741 -1.8125,-0.27741 -2.5,0 -0.6875,0.27741 -0.125,0.50439 1.25,0.50439 1.375,0 1.9375,-0.22698 1.25,-0.50439 z m -36.65451,-1.49223 c 0.44208,-0.7153 0.27432,-0.88306 -0.44098,-0.44098 -0.63498,0.39244 -1.15451,0.21041 -1.15451,-0.40451 0,-0.61492 -0.50838,-0.80384 -1.12973,-0.41982 -0.69191,0.42762 -0.93412,0.15983 -0.625,-0.69098 0.2776,-0.76406 0.99479,-1.2821 1.59374,-1.1512 0.59896,0.13091 0.84765,-0.39098 0.55265,-1.15974 -0.295,-0.76876 0.18958,-2.80158 1.07685,-4.51737 0.88727,-1.71579 1.33981,-3.56202 1.00563,-4.10273 -0.33417,-0.5407 0.49903,-3.33999 1.85156,-6.22063 1.35253,-2.88064 3.21272,-7.47962 4.13377,-10.21995 0.92104,-2.74033 2.10971,-5.25132 2.6415,-5.57998 0.53178,-0.32866 1.02709,-5.33287 1.10068,-11.12045 0.12213,-9.60513 -0.0927,-10.92819 -2.46353,-15.17002 -1.42853,-2.55592 -2.15411,-4.64713 -1.6124,-4.64713 0.54171,0 2.14889,2.54243 3.57151,5.64984 2.42013,5.28627 2.55005,6.33198 2.01891,16.25 -0.57673,10.76941 -1.30955,14.46948 -2.69605,13.61258 -0.42368,-0.26186 -1.31864,1.65323 -1.98878,4.25574 -0.67015,2.60251 -2.51917,8.10684 -4.10894,12.23184 -1.58977,4.125 -2.28556,6.7125 -1.54619,5.75 1.83766,-2.39224 2.90164,-2.20068 2.08407,0.37523 -1.1461,3.61106 1.19067,1.22834 4.54493,-4.63428 1.72028,-3.00674 2.86558,-5.89105 2.54511,-6.40958 -0.32047,-0.51853 0.61166,-4.46147 2.0714,-8.76208 1.87038,-5.51043 2.80014,-10.69148 3.14878,-17.54636 0.27209,-5.34989 0.88505,-9.48583 1.36212,-9.19098 1.32883,0.82126 0.96441,12.21374 -0.6002,18.7635 -0.768,3.215 -1.15952,6.59 -0.87005,7.5 0.45794,1.43959 0.37288,1.45967 -0.65475,0.15455 -0.97325,-1.23605 -1.08513,-1.06897 -0.63579,0.94949 0.30917,1.38878 -0.30282,4.36682 -1.41325,6.87712 -2.24224,5.06895 -2.33567,5.5245 -0.95855,4.67339 1.71221,-1.0582 1.10589,0.87205 -1.57618,5.01787 l -2.57617,3.98213 3.01692,-3.5 c 3.02788,-3.51271 4.89249,-7.58592 2.91244,-6.36218 -0.5896,0.36439 -0.81886,0.0416 -0.53174,-0.74862 0.2776,-0.76406 0.93612,-1.30165 1.46337,-1.19465 0.52725,0.107 2.49191,-2.97489 4.36591,-6.84865 3.24888,-6.71576 3.4077,-7.56159 3.41636,-18.19454 0.009,-10.82767 -0.10332,-11.39809 -3.86356,-19.65136 -2.12995,-4.675 -3.96436,-9.51287 -4.07645,-10.75082 -0.30774,-3.39868 -3.80788,-6.52138 -11.8154,-10.54128 -3.97952,-1.99779 -10.23194,-6.124344 -13.89426,-9.170122 -3.66231,-3.045779 -6.9736,-5.53778 -7.3584,-5.53778 -0.98438,0 0.46727,5.35113 1.64993,6.08206 0.8924,0.55153 4.04634,12.072162 3.46428,12.654222 -0.6717,0.6717 -7.62724,-19.215217 -7.15293,-20.451263 0.80993,-2.110645 4.19089,-0.692219 10.39358,4.360456 2.9401,2.394985 5.67371,4.354525 6.07469,4.354525 1.40525,0 -0.52531,-9.644962 -2.81242,-14.050701 -2.7797,-5.354651 -10.05295,-14.067561 -14.22011,-17.034841 l -3.02236,-2.15212 -2.92875,2.80592 c -1.61081,1.54326 -2.92875,3.39673 -2.92875,4.11883 0,0.7221 -0.49774,1.31291 -1.10608,1.31291 -2.30107,0 -12.50304,14.099269 -12.35299,17.072011 0.0674,1.335395 1.6547,5.620781 3.52732,9.523089 l 3.40477,7.095104 4.51349,-5.00385 c 2.48242,-2.752122 5.56599,-6.542412 6.85239,-8.422874 1.28639,-1.880459 2.55528,-3.202629 2.81976,-2.938153 1.04499,1.044989 -7.70168,15.174677 -9.39354,15.174677 -1.21554,0 -9.02691,8.97628 -11.20875,12.88031 -4.4293,7.92548 -5.34458,12.43148 -4.79774,23.61969 0.37787,7.73124 1.23579,12.67045 3.2535,18.73101 1.50717,4.52706 3.1335,7.988 3.61409,7.69098 0.48058,-0.29701 0.87378,-0.11396 0.87378,0.40678 0,0.52074 1.60812,3.28461 3.57361,6.14192 3.36835,4.89673 6.60249,12.16568 6.13694,13.79323 -0.1158,0.40484 0.83171,0.88378 2.10558,1.0643 2.31252,0.3277 2.31343,0.32303 0.58723,-3 -0.95089,-1.83052 -1.83692,-5.3883 -1.96895,-7.90618 -0.13414,-2.55804 -2.26846,-9.76558 -4.83723,-16.33522 -4.05762,-10.37735 -4.58076,-12.59818 -4.45731,-18.92204 l 0.13987,-7.16478 0.77718,7.5 c 0.54152,5.22583 2.12763,10.83545 5.23082,18.5 2.44951,6.05 5.03008,13.475 5.7346,16.5 0.70453,3.025 1.99245,6.625 2.86205,8 1.49029,2.35644 1.48027,2.4201 -0.17454,1.10856 -1.51386,-1.19982 -1.6777,-1.18835 -1.18971,0.0833 0.31864,0.83035 1.83252,1.47478 3.46456,1.47478 2.67846,0 2.86104,-0.2342 2.40368,-3.08334 l -0.49495,-3.08333 2.11464,3.5 c 1.16305,1.925 1.77435,2.6 1.35844,1.5 -1.17846,-3.11679 -1.6508,-14.61571 -0.64181,-15.6247 0.5401,-0.5401 0.7343,1.4558 0.48159,4.94948 -0.29993,4.1466 0.0533,6.77651 1.2108,9.01488 1.88879,3.65253 3.64361,4.21025 2.86432,0.91034 -0.52421,-2.21975 -0.50994,-2.22311 1.06181,-0.25 l 1.59317,2 0.0471,-2 c 0.0335,-1.42161 0.2827,-1.62871 0.86175,-0.71613 0.44805,0.70613 1.53333,1.00808 2.41173,0.67101 1.23139,-0.47253 1.4726,-0.13682 1.05342,1.46613 -0.4459,1.70512 -0.0837,2.07899 2.01394,2.07899 1.40669,0 2.8787,-0.51953 3.27114,-1.15451 z m -19.43545,-12.72746 c -0.088,-2.41008 -1.07703,-5.86568 -2.19779,-7.67911 -3.12884,-5.06258 -5.25146,-19.10357 -5.2818,-34.93892 -0.0234,-12.22117 0.2617,-14.73936 2.24402,-19.819 1.24897,-3.20045 2.49957,-5.59029 2.77911,-5.31076 0.27953,0.27954 -0.32692,2.67309 -1.34767,5.319 -2.6385,6.83934 -2.57411,30.82979 0.12028,44.81076 1.5511,8.04859 2.04955,9.41458 2.55429,7 0.55205,-2.64093 0.71738,-2.3417 1.38131,2.5 0.4148,3.025 0.56386,7.075 0.33124,9 -0.39279,3.25037 -0.43437,3.18746 -0.58299,-0.88197 z m 5.39916,-11.61803 c 0.28871,-1.65 0.94422,-5.025 1.45669,-7.5 0.89416,-4.31835 0.91166,-4.26256 0.43367,1.38216 -0.27395,3.23518 -0.92946,6.61018 -1.45669,7.5 -0.70551,1.1907 -0.82001,0.82579 -0.43367,-1.38216 z M 152.6287,82.57592 c -2.90405,-4.3675 -3.09988,-5.22307 -0.56136,-2.45255 1.41395,1.54317 2.57081,3.23067 2.57081,3.75 0,1.40965 -0.36701,1.17269 -2.00945,-1.29745 z m 2.22118,-4.46696 c -2.77139,-3.73524 -6.20278,-7.88229 -7.62531,-9.21566 -1.42253,-1.33338 -2.58642,-2.87432 -2.58642,-3.42432 0,-0.55 1.16619,0.0909 2.59154,1.42432 3.50112,3.27521 13.7355,16.9306 13.13736,17.52875 -0.26305,0.26305 -2.74577,-2.57784 -5.51717,-6.31309 z M 119.84407,52.817608 c -0.0169,-2.475 0.31974,-6.75 0.74807,-9.500002 l 0.77878,-5 0.0153,6.5 c 0.008,3.575002 -0.32822,7.850002 -0.74807,9.500002 -0.68684,2.699241 -0.76645,2.548862 -0.79408,-1.5 z m -8.13563,-1.190983 c -0.0387,-1.480041 0.37971,-2.969098 0.92971,-3.309017 1.19384,-0.737836 1.19384,1.221775 0,4 -0.7674,1.785834 -0.86696,1.711841 -0.92971,-0.690983 z m 12.28253,-1.140804 c 0.35595,-1.007484 0.69204,-5.057485 0.74686,-8.999995 0.0677,-4.87011 0.34013,-6.36673 0.84968,-4.66822 0.95818,3.19393 0.11493,13.188318 -1.2234,14.500002 -0.68962,0.675887 -0.81056,0.406293 -0.37314,-0.831787 z m 7.72613,-11.251545 c 0.048,-1.16494 0.28494,-1.4019 0.60416,-0.60417 0.28887,0.72188 0.25335,1.58438 -0.0789,1.91667 -0.3323,0.33229 -0.56864,-0.25833 -0.52522,-1.3125 z m 49.83567,113.002054 c 1.12835,-1.12836 -0.74075,-0.98269 -3.41462,0.26612 l -3,1.40112 2.99795,-0.62426 c 1.64887,-0.34335 3.18637,-0.81269 3.41667,-1.04298 z m 16.6797,0.73388 c -0.28805,-0.46606 -3.80211,-0.85392 -7.80902,-0.86191 l -7.2853,-0.0145 6,0.69381 c 9.31542,1.07718 9.65135,1.08393 9.09432,0.18262 z m -103.232688,-1.6526 c 0.31658,-0.825 0.13972,-1.5 -0.39302,-1.5 -0.53273,0 -0.96861,0.675 -0.96861,1.5 0,0.825 0.17685,1.5 0.39301,1.5 0.21616,0 0.65203,-0.675 0.96862,-1.5 z m 84.266448,-2.07454 c 6.1667,-3.53572 12.74786,-10.42357 14.05251,-14.70736 0.92717,-3.04438 0.84844,-4.84827 -0.40375,-9.25 -2.0052,-7.04878 -3.47824,-7.03307 -2.64832,0.0283 0.86909,7.3946 -1.28227,12.75282 -7.63107,19.00616 -2.7486,2.70727 -4.99745,4.465 -4.99745,3.90606 0,-0.55893 1.60469,-2.56701 3.56597,-4.4624 7.26249,-7.0185 7.74501,-8.5578 7.13543,-22.76295 l -0.54427,-12.68327 1.71784,4.28693 c 1.73208,4.32247 3.12503,4.6652 3.12503,0.76891 0,-1.16096 0.61097,-2.99846 1.35771,-4.08333 0.74674,-1.08488 1.90543,-3.65635 2.57487,-5.71438 0.66944,-2.05803 2.2779,-5.73685 3.57436,-8.17516 2.66326,-5.00891 4.57872,-18.58297 2.62227,-18.58297 -0.62107,0 -1.14951,0.7875 -1.17431,1.75 -0.0276,1.07218 -0.54411,0.58803 -1.33344,-1.25 l -1.28833,-3 -0.68822,3.6239 c -0.71779,3.77956 -7.24117,19.69797 -8.72619,21.29371 -0.46967,0.50469 -0.024,-1.29531 0.9903,-4 3.62929,-9.67735 3.13797,-9.77684 -2.06238,-0.41761 -2.90321,5.225 -5.17769,9.84857 -5.0544,10.27461 0.39483,1.36434 -2.07032,10.13885 -3.57512,12.72539 l -1.45446,2.5 2.11257,-2.5 c 1.16191,-1.375 2.57429,-4.075 3.13863,-6 1.31808,-4.49611 4.90783,-11.89723 4.95221,-10.21016 0.0187,0.70941 -0.8036,2.95941 -1.82726,5 -1.02365,2.04059 -1.66463,4.26222 -1.4244,4.93695 0.37322,1.04826 -6.05234,12.81585 -7.79372,14.27321 -0.32859,0.275 -2.14093,2.75 -4.02743,5.5 -5.74381,8.37294 -13.17698,16.22828 -16.72957,17.67971 -1.21792,0.4976 -1.28027,0.69855 -0.23271,0.75 2.32378,0.11414 15.86703,-10.82149 19.26949,-15.55934 3.35798,-4.6759 4.57287,-5.68389 2.75369,-2.28472 -0.61391,1.1471 -0.88792,2.31392 -0.60892,2.59293 0.27901,0.279 1.24865,-0.92636 2.15476,-2.67858 0.90611,-1.75222 1.87178,-2.96156 2.14592,-2.68741 0.51322,0.51322 -4.31098,8.68741 -5.12708,8.68741 -0.25084,0 -0.19789,-0.7875 0.11766,-1.75 0.31555,-0.9625 -1.05422,0.05 -3.04392,2.25 -5.85126,6.4697 -7.58503,10.52797 -2.02929,4.75 2.00357,-2.08371 2.39003,-2.2455 1.59507,-0.66776 -1.43856,2.85507 -3.85736,4.72182 -5.1128,3.94592 -0.57313,-0.35422 -2.05534,0.0821 -3.29381,0.96967 -2.24304,1.60746 -2.24015,1.61129 0.74825,0.9898 2.73646,-0.56908 2.84369,-0.49652 1.22061,0.82597 -1.59396,1.29878 -1.61246,1.51392 -0.17756,2.06455 0.88101,0.33807 2.43965,0.16629 3.46365,-0.38174 2.83554,-1.51753 3.74325,-1.12922 1.4933,0.63882 -1.94321,1.527 -1.92902,1.55154 0.5,0.86436 1.375,-0.389 4.35764,-1.77236 6.62808,-3.07413 z m -3.58744,-3.7811 c -0.0223,-0.47061 1.10587,-2.2182 2.50716,-3.88353 3.40903,-4.05141 6.13227,-9.53855 6.98208,-14.06839 0.38326,-2.04299 1.03576,-3.92399 1.44999,-4.18 1.30889,-0.80894 -0.82328,8.26302 -2.86899,12.207 -2.11974,4.08668 -8.00383,11.32304 -8.07024,9.92492 z m 17.127,-49.69541 c 0.58498,-1.67807 1.24916,-2.86548 1.47596,-2.63868 0.49521,0.49521 -1.39173,5.68973 -2.06683,5.68973 -0.26,0 0.006,-1.37297 0.59087,-3.05105 z m 2.94675,-2.19895 c 1.70554,-8.03796 1.98432,-8.98463 2.4953,-8.47364 0.70798,0.70798 -1.84506,12.72364 -2.70347,12.72364 -0.38149,0 -0.28782,-1.9125 0.20817,-4.25 z m -79.69037,53.28456 c -2.89611,-6.00335 -10.13586,-12.03475 -17.959448,-14.96193 -3.04678,-1.13995 -5.90358,-2.07263 -6.34844,-2.07263 -0.44487,0 -2.1268,-0.65748 -3.73762,-1.46106 -3.61654,-1.80417 -26.25187,-7.53894 -29.75644,-7.53894 -1.40868,0 -4.03742,-0.82385 -5.84165,-1.83077 -2.75215,-1.53594 -12.25321,-5.16923 -13.51758,-5.16923 -0.20948,0 -0.10276,0.45 0.23716,1 0.96481,1.56109 -0.10703,1.22716 -6.62971,-2.06548 -7.21718,-3.64322 -8.96168,-3.38424 -2.1253,0.31551 11.19939,6.06096 30.73402,13.02444 41.74894,14.88219 6.05334,1.02095 11.19357,1.85885 11.42274,1.86202 0.22916,0.003 0.17331,0.24911 -0.12412,0.54655 -0.8768,0.87679 -20.47362,-2.53878 -26.53878,-4.62551 -3.07006,-1.05625 -5.7118,-1.79058 -5.87054,-1.63185 -0.42271,0.42272 17.31462,7.81934 22.59726,9.42326 2.48573,0.75472 5.30763,1.17143 6.27089,0.92602 0.96326,-0.2454 1.54898,-0.1187 1.3016,0.28156 -0.67976,1.09988 9.08591,4.33352 11.14821,3.69144 0.98935,-0.30803 2.47381,-0.0908 3.29881,0.48263 1.1394,0.79201 0.899,0.87686 -1,0.35294 -1.375,-0.37935 -2.1802,-0.35153 -1.78933,0.0618 1.15877,1.22545 17.787958,8.37753 17.804638,7.65763 0.008,-0.36341 0.43396,0.001 0.94563,0.8103 0.51167,0.80907 1.21176,1.18959 1.55575,0.8456 0.59095,-0.59095 -9.02293,-8.99272 -13.11682,-11.46307 -1.306018,-0.78808 -1.582018,-1.48102 -0.882988,-2.21688 1.637798,-1.72408 13.100318,6.32646 14.427198,10.13275 0.90924,2.60824 3.73927,6.73056 4.62062,6.73056 0.1401,0 -0.8232,-2.23445 -2.14068,-4.96544 z m -7.42402,-1.03456 c -0.90129,-0.58246 -1.02463,-0.97549 -0.30902,-0.98469 0.65504,-0.008 1.4691,0.43469 1.80902,0.98469 0.7673,1.24153 0.42112,1.24153 -1.5,0 z m -8,-4 c -1.924998,-1.05389 -3.140148,-1.93503 -2.700338,-1.95808 1.0597,-0.0556 6.700338,2.87723 6.700338,3.48376 0,0.65451 -0.0585,0.63219 -4,-1.52568 z m -15.499998,-6 c -1.63041,-0.70061 -1.68751,-0.87242 -0.30902,-0.92971 0.93004,-0.0387 1.9691,0.37971 2.30902,0.92971 0.71066,1.14988 0.67591,1.14988 -2,0 z m 3.5,-3.04931 c -2.55951,-1.04764 -3.63756,-1.85407 -2.5,-1.87008 1.1,-0.0155 3.8,0.82361 6,1.86467 5.12525,2.4253 2.42223,2.42949 -3.5,0.005 z m 65.499998,18.04931 c 0.33992,-0.55 0.14148,-1 -0.44098,-1 -0.58246,0 -1.05902,0.45 -1.05902,1 0,0.55 0.19844,1 0.44098,1 0.24254,0 0.7191,-0.45 1.05902,-1 z m -62.499998,-1 c 0,-0.55 -0.92656,-1 -2.05902,-1 -1.13246,0 -1.7809,0.45 -1.44098,1 0.33992,0.55 1.26648,1 2.05902,1 0.79254,0 1.44098,-0.45 1.44098,-1 z m 149.496468,-0.006 c -0.72446,-1.17221 -8.79035,-1.05861 -10.69675,0.15065 -0.7623,0.48354 1.30899,0.83077 5.0093,0.83975 3.97875,0.01 6.07944,-0.35615 5.68745,-0.9904 z M 43.838762,147.53115 c -1.42632,-1.51824 -3.4218,-2.33725 -5.93922,-2.43764 -3.26248,-0.1301 -11.24676,-1.62712 -20.26139,-3.79894 l -2.5,-0.6023 2.5,1.60438 2.5,1.60439 -2.5,-0.6641 c -1.375,-0.36526 -3.0625,-1.11413 -3.75,-1.66416 -0.83737,-0.66994 -1.25,-0.66183 -1.25,0.0246 0,1.24941 5.87182,3.41752 7.13734,2.63539 0.49918,-0.30851 3.03499,0.14153 5.63513,1.0001 4.68077,1.54558 16.40461,4.2907 19.15184,4.48437 0.99051,0.0698 0.7701,-0.59598 -0.7237,-2.18605 z m 159.064488,-0.42778 c 6.5889,-1.81158 9.7368,-3.74385 7.47597,-4.58898 -1.51217,-0.56527 -0.97897,-0.7903 9.75893,-4.11856 5.10139,-1.5812 7.29668,-1.95401 6.05887,-1.02893 -1.06762,0.79789 -1.68668,1.45071 -1.37568,1.45071 1.70417,0 19.38267,-7.74881 26.37794,-11.56193 4.47796,-2.44094 8.77109,-4.45425 9.5403,-4.47403 0.76922,-0.0198 2.74857,-1.15889 4.39857,-2.53134 2.8238,-2.34882 2.60276,-2.31143 -3.76346,0.63652 -3.7199,1.72254 -8.8949,3.31068 -11.5,3.5292 -2.6051,0.21852 -7.66154,0.82157 -11.23654,1.3401 -3.575,0.51854 -10.3005,1.21236 -14.94555,1.54184 -4.9827,0.35343 -10.2499,1.3972 -12.84617,2.54566 -7.50823,3.32124 -23.32621,15.18939 -22.00521,16.51038 0.38593,0.38593 1.43026,-0.0269 2.32074,-0.91735 0.89048,-0.89048 2.06598,-1.61905 2.61224,-1.61905 2.10843,0 10.80996,-4.27834 10.31858,-5.0734 -0.2851,-0.46131 0.635,-1.59445 2.04466,-2.51809 3.83617,-2.51356 15.315,-6.4617 15.68128,-5.39358 0.18318,0.53418 2.814,0.27885 6.16797,-0.59863 3.2167,-0.84157 7.0417,-1.34694 8.5,-1.12305 2.39739,0.36808 2.34627,0.42144 -0.53344,0.55692 -1.7517,0.0824 -4.4517,0.65751 -6,1.278 -1.54831,0.62049 -5.0651,1.23949 -7.8151,1.37556 -5.78269,0.28611 -17.69848,5.13753 -15.68101,6.3844 1.20391,0.74406 -6.46403,4.75577 -12.56899,6.57585 -3.604,1.07447 -2.63763,2.71459 2.0151,3.42002 0.4208,0.0638 3.5708,-0.65541 7,-1.59824 z m 19.81465,0.1861 c 2.38217,-0.84047 4.8765,-1.31889 5.54297,-1.06314 0.66647,0.25575 1.4436,-0.13916 1.72695,-0.87757 0.28336,-0.73841 2.0081,-1.65444 3.83276,-2.03564 1.82466,-0.38119 5.28675,-1.77362 7.69352,-3.09429 4.95073,-2.71662 5.53671,-2.87794 4.52856,-1.24671 -0.43207,0.6991 -0.27535,0.8837 0.39731,0.46797 0.61096,-0.37759 0.93196,-1.23462 0.71333,-1.90451 -0.21862,-0.66988 2.23351,-3.24297 5.44919,-5.71797 3.21568,-2.475 5.70974,-4.64196 5.54236,-4.81548 -0.39828,-0.41287 -11.86358,5.38441 -16.7528,8.47084 -2.10105,1.32633 -7.06769,3.58201 -11.03699,5.01261 -3.9693,1.43061 -8.78525,3.44056 -10.7021,4.46657 -1.91686,1.026 -4.05436,1.86546 -4.75,1.86546 -0.69565,0 -1.26481,0.45 -1.26481,1 0,1.46166 4.11915,1.22207 9.07975,-0.52814 z M 38.999782,143.31761 c -0.33998,-0.88596 -1.84177,-1.5 -3.66862,-1.5 -3.52892,0 -2.62661,1.57346 1.30699,2.27914 1.375,0.24667 2.59838,0.50978 2.71861,0.58468 0.12024,0.0749 -0.0404,-0.53882 -0.35698,-1.36382 z m -8.11163,-1.16228 c -0.6875,-0.27741 -1.8125,-0.27741 -2.5,0 -0.6875,0.27741 -0.125,0.50439 1.25,0.50439 1.375,0 1.9375,-0.22698 1.25,-0.50439 z M 207.63815,129.10864 c 0,-0.23419 -0.84671,-0.15707 -1.88158,0.17138 -1.20116,0.38124 -2.09984,0.0284 -2.48516,-0.97573 -0.48542,-1.265 -1.01332,-1.35364 -2.69656,-0.4528 -1.15114,0.61607 -2.62032,0.91765 -3.26484,0.67018 -0.81483,-0.31286 -1.06632,0.86596 -0.82545,3.86919 l 0.34642,4.31915 5.40358,-3.58778 c 2.97198,-1.97328 5.40359,-3.77939 5.40359,-4.01359 z m -106,2.23465 c 0,-0.26088 -1.35,-1.17243 -2.999998,-2.02568 -3.76088,-1.94483 -3.98844,-1.10011 -0.25,0.92803 3.142548,1.70486 3.249998,1.74115 3.249998,1.09765 z m -7.561828,-5.27568 c -0.46197,-2.11756 -0.35488,-2.40503 0.46563,-1.25 0.78351,1.10294 1.06963,1.1535 1.08089,0.19098 0.009,-0.77968 0.52078,-1.00534 1.26531,-0.55804 0.725,0.43557 0.6233,-0.0202 -0.24216,-1.08523 -1.37918,-1.69718 -1.3224,-1.78232 0.75,-1.12457 2.668418,0.84692 2.766548,0.0762 0.63869,-5.01653 -1.14719,-2.74561 -1.27536,-3.947 -0.45042,-4.22198 0.80055,-0.26685 0.65404,-1.14594 -0.47927,-2.87558 -0.89777,-1.37018 -1.83186,-3.68774 -2.07574,-5.15014 -0.24388,-1.4624 -0.8654,-3.78391 -1.38114,-5.15891 -1.35109,-3.60209 -5.02269,-18.59169 -4.93967,-20.16661 0.0386,-0.73337 0.41485,-0.45237 0.83598,0.62444 0.52617,1.34536 0.96582,-0.1851 1.40538,-4.89233 0.35183,-3.76759 0.83813,-7.04862 1.08068,-7.29117 0.24255,-0.24255 1.39492,0.51292 2.56081,1.67881 1.1659,1.1659 2.5534,1.85184 3.08334,1.52432 0.52993,-0.32752 0.96649,0.21856 0.97011,1.21352 0.004,0.99496 0.9378,3.15902 2.075958,4.80902 1.65793,2.40353 1.94145,2.55265 1.42602,0.75 -0.96213,-3.3649 0.43346,-2.71474 1.64736,0.76745 l 1.05189,3.01745 3.8648,-5.51719 c 4.22285,-6.02832 4.21469,-6.7 -0.15508,-12.76811 -3.7904,-5.263552 -13.917538,-13.513372 -13.917538,-11.33757 0,0.226617 0.66885,3.907772 1.48632,8.180348 0.81748,4.272572 1.31808,7.936552 1.11245,8.142192 -0.3808,0.38079 -3.26507,-12.251624 -3.80301,-16.656244 -0.16267,-1.33192 -0.86951,-2.53567 -1.57076,-2.675 -0.70125,-0.13933 -0.86895,-0.04298 -0.37267,0.214116 0.49629,0.257095 -0.59642,3.915096 -2.42823,8.128892 -1.89074,4.349364 -2.976,8.113686 -2.51039,8.707556 0.4511,0.57536 1.07029,3.52111 1.37599,6.54611 l 0.55581,5.5 -1.33209,-5.326 c -0.73264,-2.92929 -1.53403,-5.52794 -1.78085,-5.77476 -1.48326,-1.48327 -3.22913,13.84333 -3.20098,28.10076 0.03,15.18775 0.16678,16.2919 2.69468,21.75 2.67671,5.77943 4.56891,7.97168 2.74898,3.1849 -1.36431,-3.58839 -1.21498,-4.73533 0.41979,-3.22433 0.76727,0.70919 1.22026,1.57912 1.00664,1.9332 -0.56129,0.93031 2.61565,8.22226 3.96071,9.09092 1.68434,1.08777 1.72835,1.00659 1.07578,-1.98469 z m -3.83278,-4.83594 c -0.33472,-0.87227 -0.17154,-2.33477 0.36261,-3.25 0.53415,-0.91523 1.02237,-1.21406 1.08493,-0.66406 0.0625,0.55 0.22603,2.0125 0.36328,3.25 0.28649,2.58309 -0.90653,3.02059 -1.81082,0.66406 z m -5.10539,-7.41406 c -0.33992,-0.55 -0.14148,-1 0.44098,-1 0.58246,0 1.05902,0.45 1.05902,1 0,0.55 -0.19844,1 -0.44098,1 -0.24254,0 -0.7191,-0.45 -1.05902,-1 z m 2,-4 c -0.33992,-0.55 -0.14148,-1 0.44098,-1 0.58246,0 1.05902,0.45 1.05902,1 0,0.55 -0.19844,1 -0.44098,1 -0.24254,0 -0.7191,-0.45 -1.05902,-1 z m 0.5866,-14.52202 c -1.77898,-5.79384 -3.07698,-11.00685 -2.88443,-11.58449 0.19254,-0.57763 1.82567,3.98518 3.62917,10.13959 1.8035,6.1544 3.1015,11.36742 2.88443,11.58448 -0.21706,0.21707 -1.85019,-4.34575 -3.62917,-10.13958 z m -3.86016,6.27169 c -1.70259,-4.70845 -1.46658,-5.98349 0.33784,-1.82508 0.81729,1.88353 1.35158,3.82783 1.1873,4.32067 -0.16428,0.49285 -0.85059,-0.63017 -1.52514,-2.49559 z M 100.26169,69.27895 c -0.342948,-0.8937 -0.578338,-2.82561 -0.523088,-4.29313 0.0808,-2.146344 0.279468,-1.905244 1.015728,1.23272 0.93881,4.00122 0.62248,5.96637 -0.49264,3.06041 z m -1.428588,-9.961342 c 0.0204,-1.65 0.2445,-2.203936 0.49804,-1.23097 0.25354,0.97297 0.23687,2.32297 -0.0371,3 -0.27393,0.67703 -0.48137,-0.11903 -0.46099,-1.76903 z M 216.13815,125.81761 c 1.70508,-0.7327 1.55762,-0.85943 -1,-0.85943 -1.65,0 -3.9,0.38674 -5,0.85943 -1.70508,0.7327 -1.55762,0.85943 1,0.85943 1.65,0 3.9,-0.38674 5,-0.85943 z m -16.90499,-2.14551 c 1.89478,-2.13401 1.89293,-2.13918 -0.34501,-0.96482 -1.45727,0.76471 -2.25,0.81598 -2.25,0.14551 0,-0.56935 0.39992,-1.03518 0.88872,-1.03518 0.91757,0 11.26993,-9.45972 28.45341,-26 8.45296,-8.13656 19.6412,-20.69324 22.00033,-24.69122 1.35604,-2.29805 5.81806,-14.800011 4.99226,-13.987611 -0.4591,0.451644 -4.00878,4.725189 -7.88819,9.496771 -3.87942,4.77159 -7.75695,8.67706 -8.61674,8.67883 -1.38998,0.003 -7.88713,4.88066 -13.00631,9.76459 -2.49396,2.37935 -16.01429,10.74699 -17.29762,10.70537 -0.56422,-0.0183 -0.0829,-0.8216 1.06954,-1.78511 4.32421,-3.6152 11.38348,-26.4387 11.39759,-36.849835 0.0119,-8.766558 -0.60057,-9.143126 -6.08487,-3.741291 -2.65006,2.610211 -4.58694,5.120164 -4.30419,5.577674 0.28276,0.45751 -0.0792,0.83183 -0.80437,0.83183 -2.70168,0 -3.93966,3.766012 -2.72304,8.283642 2.39905,8.90826 -0.78537,35.99637 -5.31553,45.21636 -0.81072,1.65 -2.19674,4.46961 -3.08006,6.26579 -1.5112,3.07294 -1.37374,6.23421 0.27107,6.23421 0.40591,0 1.59527,-0.96548 2.64301,-2.14551 z m 8.40499,-14.47162 c 3.025,-2.65832 8.59976,-7.76946 12.38836,-11.35809 3.7886,-3.58863 6.40476,-5.59542 5.8137,-4.45955 -1.18215,2.27181 -20.50394,19.71942 -22.47267,20.29286 -0.67616,0.19695 1.24561,-1.8169 4.27061,-4.47522 z m 3.24188,-10.13287 c 2.89468,-2.6125 8.72539,-7.57175 12.95713,-11.02055 4.23174,-3.44881 8.65254,-7.6166 9.824,-9.26176 1.17146,-1.64516 2.56736,-2.72085 3.10201,-2.39042 0.59451,0.36742 0.4677,1.21293 -0.32646,2.17673 -2.31745,2.8125 -28.83534,25.246 -29.84244,25.246 -0.53751,0 1.39108,-2.1375 4.28576,-4.75 z m -0.24188,-30.91093 c 0,-1.47144 5.02759,-13.685159 6.0877,-14.789072 1.44831,-1.508163 1.10989,-0.304228 -2.10814,7.49957 -3.05276,7.403012 -3.97956,9.100672 -3.97956,7.289502 z m -0.91807,-4.00616 c -0.11929,-1.699314 3.87574,-10.708571 4.48043,-10.103882 0.28166,0.281655 -0.59278,2.932846 -1.9432,5.89154 -1.35041,2.958678 -2.49216,4.854242 -2.53723,4.212342 z m 28.91807,60.20908 8.5,-1.30726 -10.5,0.30052 c -5.775,0.16529 -11.625,0.75895 -13,1.31925 -2.233,0.90993 -2.0194,1.01745 2,1.00673 2.475,-0.007 8.325,-0.60025 13,-1.31924 z M 77.384882,122.06761 c -0.85978,-0.9625 -2.27489,-3.325 -3.14468,-5.25 -0.86979,-1.925 -1.35087,-2.55089 -1.06907,-1.39088 0.65688,2.70401 -0.42993,5.5726 -1.79227,4.73063 -0.60778,-0.37563 -0.75344,-0.16937 -0.34599,0.48991 0.55744,0.90196 3.91783,2.28014 7.51027,3.08015 0.22274,0.0496 -0.29848,-0.69731 -1.15826,-1.65981 z m 24.801328,-2.15707 c -2.196668,-4.24788 -2.909238,-3.91819 -0.85266,0.39451 0.91468,1.9181 1.84058,3.30991 2.05756,3.09293 0.21698,-0.21698 -0.32522,-1.78633 -1.2049,-3.48744 z m 152.95194,1.90707 c 1.83166,-0.78709 1.78958,-0.86406 -0.5,-0.9144 -1.375,-0.0302 -3.175,0.38124 -4,0.9144 -1.23805,0.80009 -1.15073,0.95977 0.5,0.9144 1.1,-0.0302 2.9,-0.44171 4,-0.9144 z M 66.638152,118.44005 c 0,-0.20765 -0.7875,-0.99515 -1.75,-1.75 -1.58606,-1.24387 -1.62143,-1.2085 -0.37756,0.37756 1.30637,1.66575 2.12756,2.19548 2.12756,1.37244 z m 10.67681,-3.37244 c -0.28031,-2.0625 -0.97677,-5.2506 -1.5477,-7.08466 -0.95479,-3.06716 -0.90133,-3.2276 0.66641,-2 0.93747,0.73406 2.04554,1.78466 2.46239,2.33466 0.41685,0.55 0.50152,-0.8 0.18816,-3 -0.55018,-3.86269 -0.60786,-20.31149 -0.11671,-33.28896 0.22566,-5.96271 0.15491,-6.17878 -1.36393,-4.16521 -3.58388,4.75125 -9.02076,19.27507 -8.96708,23.95417 0.0158,1.375 -0.25163,4.1875 -0.59424,6.25 -0.43546,2.62148 -0.25644,3.75 0.59489,3.75 0.81019,0 1.00075,0.86484 0.56933,2.58379 -0.42051,1.67543 -0.28284,2.3578 0.39159,1.94098 0.57204,-0.35354 1.08494,-1.62875 1.13976,-2.83379 0.0918,-2.01882 0.15626,-1.99454 0.8198,0.30902 0.39607,1.375 0.43089,2.725 0.0774,3 -0.35351,0.275 -0.94852,1.4 -1.32225,2.5 -0.64548,1.89981 -0.60873,1.90888 0.73365,0.18098 1.3432,-1.72896 1.44784,-1.70421 2.11368,0.5 0.99509,3.29413 3.61703,8.81902 4.18524,8.81902 0.26361,0 0.24995,-1.6875 -0.0304,-3.75 z m 3.32319,1.75 c -0.5887,-1.1 -1.29537,-2 -1.57037,-2 -0.275,0 -0.0183,0.9 0.57037,2 0.5887,1.1 1.29537,2 1.57037,2 0.275,0 0.0183,-0.9 -0.57037,-2 z m 109.345078,0.45687 c -0.32569,-0.84872 -0.80663,-1.32866 -1.06875,-1.06653 -0.26213,0.26213 -0.17998,0.95654 0.18255,1.54313 0.98605,1.59546 1.56238,1.28551 0.8862,-0.4766 z m 6.10965,-3.45687 c 0.63564,-2.28104 0.52664,-2.23725 -1.24459,0.5 -1.06769,1.65 -1.71448,3.39529 -1.43731,3.87842 0.58119,1.01307 1.67887,-0.77898 2.6819,-4.37842 z m 23.0103,-3.8683 c -0.68686,-0.68687 4.68242,-6.15861 5.52954,-5.63505 0.37869,0.23404 2.22233,-1.24019 4.09698,-3.27607 2.27622,-2.47198 2.49494,-2.89943 0.65845,-1.28677 -3.4349,3.01624 -3.66062,1.2703 -0.25,-1.93381 1.50731,-1.41604 2.5,-1.83372 2.5,-1.05187 0,1.03319 0.35179,1.01781 1.73084,-0.0757 2.50818,-1.98883 -3.96645,6.08139 -7.72407,9.62756 -1.74839,1.65 -3.66584,3.9 -4.26101,5 -1.474,2.72428 4.70225,-2.6675 14.75424,-12.88025 9.42586,-9.57661 10.5695,-11.02607 12.33579,-15.63452 2.6779,-6.98697 2.25904,-7.3538 -1.44739,-1.2676 -2.08256,3.4197 -3.96293,6.04118 -4.1786,5.8255 -0.21567,-0.21567 1.26195,-3.4636 3.28361,-7.21763 2.02166,-3.75402 2.96136,-5.9255 2.08823,-4.8255 -0.87313,1.1 -3.45344,4.3625 -5.73401,7.25 -2.28057,2.8875 -4.55581,5.25 -5.05608,5.25 -0.50027,0 -0.66298,0.39901 -0.36158,0.88669 0.30141,0.48768 -0.20842,1.50018 -1.13294,2.25 -1.44312,1.17042 -1.57457,1.15108 -0.92908,-0.13669 0.41353,-0.825 -1.62111,1.2 -4.52142,4.5 -2.90031,3.3 -8.21952,8.925 -11.82047,12.5 -3.60096,3.575 -5.39281,5.4875 -3.98191,4.25 4.55753,-3.99739 4.50222,-2.38846 -0.0859,2.5 l -4.45821,4.75 4.72903,-4.43763 c 2.60097,-2.4407 4.50717,-4.6595 4.236,-4.93067 z M 25.638152,117.4726 c 0,-0.18976 -1.0125,-1.20226 -2.25,-2.25 l -2.25,-1.90499 1.90499,2.25 c 1.79022,2.11444 2.59501,2.70524 2.59501,1.90499 z m 34.44258,-4.65499 c -1.50887,-6.81849 -1.64014,-6.55804 1.71967,-3.41197 l 3.1098,2.91197 -3.16833,-4.44463 c -1.74258,-2.44455 -2.94491,-5.02685 -2.67184,-5.73845 0.27307,-0.71161 -1.09804,-3.97056 -3.0469,-7.24213 -1.94886,-3.27157 -3.64773,-6.53926 -3.77527,-7.26155 -0.40285,-2.28147 -1.78425,-6.17103 -3.74359,-10.54071 -1.04257,-2.3251 -2.49291,-6.56154 -3.22299,-9.41431 l -1.32741,-5.186844 -0.65786,3.289314 c -1.04055,5.20276 -0.7781,10.1575 0.87404,16.50048 1.04449,4.01005 1.19756,6.088 0.4811,6.5308 -1.99,1.22988 3.36993,13.47476 8.97695,20.50803 1.75387,2.2 3.56112,4 4.01612,4 0.45499,0 1.16476,0.3375 1.57726,0.75 1.16422,1.16421 1.33766,0.9119 0.85925,-1.25 z M 177.206,110.4855 c 0.0465,-2.09456 2.38953,-6.89485 6.91544,-14.16789 8.25496,-13.26555 9.95855,-16.9826 12.54346,-27.36855 1.61421,-6.485744 1.76845,-8.486832 0.81537,-10.578612 l -1.17543,-2.579787 -3.21821,3.513477 c -1.77002,1.93241 -3.99798,3.513468 -4.95102,3.513468 -2.01861,0 -15.98194,10.256394 -17.39085,12.773994 -0.52613,0.94014 -1.29862,1.36734 -1.71663,0.94932 -0.99985,-0.99985 6.00442,-8.13983 11.24947,-11.46743 3.58003,-2.271274 4.22197,-3.228182 4.75,-7.080602 1.07384,-7.834503 0.6538,-22.415742 -0.89807,-31.175282 -0.82824,-4.675 -1.57689,-10.20024 -1.66367,-12.27832 -0.0868,-2.07807 -0.48377,-3.65307 -0.88217,-3.5 -1.84702,0.70966 -18.94554,23.67786 -18.94554,25.44928 0,0.50433 -2.7,6.24026 -6,12.746498 -3.3,6.506242 -5.99715,12.336454 -5.99368,12.956034 0.006,1.045978 2.86127,3.144872 8.85433,6.508472 8.89608,4.99291 16.02482,22.27215 16.10422,39.03471 0.0333,7.02834 1.45397,9.46667 1.60298,2.75122 z m 1.49,-12.79721 c 0.69157,-1.30388 2.31146,-4.04924 3.59977,-6.10081 2.52795,-4.02564 2.91231,-5.24014 1.35347,-4.27672 -0.81429,0.50326 1.01667,-5.17787 7.53711,-23.38628 0.27438,-0.766224 0.73404,-1.157964 1.02147,-0.870544 0.28742,0.287434 -1.29817,5.470704 -3.52354,11.518394 -4.35056,11.82312 -4.57551,12.69049 -3.04613,11.74528 1.61729,-0.99954 1.20397,0.0143 -2.62934,6.44925 -3.51748,5.90483 -6.85347,9.71158 -4.31281,4.92143 z m -2.05785,-5.50265 c 0,-0.86962 4.05874,-7.36803 4.60188,-7.36803 0.24132,0 -0.47952,1.8 -1.60188,4 -1.87814,3.68147 -3,4.94095 -3,3.36803 z m -4.6784,-25.86803 c 1.25298,-8.288572 7.10069,-32.357044 7.76218,-31.948224 0.37929,0.23442 -0.41511,5.04366 -1.76533,10.68722 -1.35023,5.643549 -3.05231,13.326572 -3.78241,17.073382 -1.43898,7.384692 -3.20164,10.717972 -2.21444,4.187622 z m -5.93117,-0.25 c 3.10735,-10.353773 7.83793,-28.318784 8.19846,-31.134724 0.49697,-3.88162 2.41111,-6.80143 2.41111,-3.67788 0,3.23759 -9.35128,36.562604 -10.25977,36.562604 -0.48125,0 -0.63866,-0.7875 -0.3498,-1.75 z m -5.68276,-3.259884 c -0.72547,-2.774188 -0.56557,-3.148078 0.9348,-2.185748 0.60146,0.38578 0.77475,1.56263 0.38904,2.642078 -0.64214,1.797104 -0.74371,1.762094 -1.32384,-0.45633 z m 6.39941,-19.49012 c -0.0446,-2.13585 3.16574,-12.10615 4.24591,-13.18632 1.19105,-1.19105 0.66577,1.24305 -1.77856,8.24154 -1.33406,3.81963 -2.44437,6.04478 -2.46735,4.94478 z M 80.760222,111.14261 c -1.17884,-2.02721 -1.46351,-1.37835 -0.49853,1.13634 0.34294,0.8937 0.83419,1.41426 1.09166,1.15679 0.25747,-0.25747 -0.009,-1.28938 -0.59313,-2.29313 z m -17.49251,-6.02667 c -1.99626,-1.88336 -3.62956,-3.05699 -3.62956,-2.60806 0,0.44892 1.35,2.09041 3,3.64774 1.65,1.55734 3.03553,3.35588 3.07895,3.99676 0.0455,0.67156 0.31222,0.57689 0.62956,-0.22346 0.31587,-0.79665 -0.99677,-2.84857 -3.07895,-4.81298 z m 135.797228,0.70167 c 0.46475,-1.73748 0.38603,-2.04249 -0.25808,-1 -0.50973,0.825 -1.2277,2.625 -1.5955,4 -0.46475,1.73748 -0.38603,2.04249 0.25808,1 0.50973,-0.825 1.2277,-2.625 1.5955,-4 z M 67.443722,82.64507 c 0.85867,-2.11304 0.77829,-2.92794 -0.38394,-3.8925 -0.80848,-0.67098 -1.24496,-1.44496 -0.96996,-1.71996 0.275,-0.275 1.18587,0.0692 2.02416,0.76494 1.22976,1.02061 1.52417,1.01914 1.52417,-0.008 0,-0.69991 2.32475,-4.89664 5.16612,-9.32607 l 5.16611,-8.053522 -5.91611,-5.29867 c -6.60564,-5.915827 -16.15973,-11.290862 -24.34762,-13.697332 -5.64874,-1.66019 -10.41039,-2.12752 -8.46753,-0.83103 0.60553,0.40407 1.36637,1.85968 1.69074,3.23468 0.32437,1.375 1.04216,4.300002 1.59508,6.500002 0.55291,2.2 2.41903,10.075 4.14692,17.500002 3.68572,15.83808 5.70786,21.02692 11.88613,30.5 l 4.56535,7 0.61718,-10 c 0.33945,-5.5 1.10589,-11.20264 1.7032,-12.67254 z m -10.42561,-7.00998 c -7.6026,-11.87271 -7.5701,-11.81748 -6.95544,-11.81748 0.28814,0 3.348,4.14883 6.79969,9.21962 8.11777,11.92564 8.032,11.78038 6.95544,11.78038 -0.50585,0 -3.56571,-4.13213 -6.79969,-9.18252 z m 10.28671,-0.48415 c -0.36667,-0.36666 -0.66667,-1.13166 -0.66667,-1.7 0,-0.6266 0.46577,-0.56756 1.18333,0.15 0.65084,0.65084 0.95084,1.41584 0.66667,1.7 -0.28417,0.28417 -0.81667,0.21667 -1.18333,-0.15 z m -6.02381,-9.47619 c -1.48705,-2.27128 -2.53089,-4.302442 -2.31964,-4.513702 0.21126,-0.21125 1.60867,1.466338 3.10535,3.727992 1.49669,2.26165 2.54052,4.29281 2.31963,4.5137 -0.22089,0.22089 -1.61829,-1.45671 -3.10534,-3.72799 z m 3.69434,-3.107144 c -3.97504,-5.627863 -5.06013,-7.92358 -2.13421,-4.515348 2.47434,2.88221 6.18132,8.765352 5.52307,8.765352 -0.21286,0 -1.73785,-1.9125 -3.38886,-4.250004 z m -12.50602,-0.903088 c -2.78002,-5.23515 -3.90304,-7.84691 -3.37407,-7.84691 0.68001,0 6.55644,11.319782 6.10882,11.767412 -0.23453,0.23452 -1.46516,-1.52971 -2.73475,-3.920502 z m 6.16882,-8.84691 c -0.5887,-1.1 -0.84537,-2 -0.57037,-2 0.275,0 0.98167,0.9 1.57037,2 0.5887,1.1 0.84537,2 0.57037,2 -0.275,0 -0.98167,-0.9 -1.57037,-2 z M 103.25521,84.81761 c 0.40557,-1.87931 0.28865,-2.14019 -0.47093,-1.05075 -0.81926,1.17503 -1.3544,0.82528 -2.828288,-1.84849 -2.28553,-4.14616 -5.43125,-8.32069 -5.9096,-7.84233 -0.78376,0.78375 1.57146,16.53903 3.23654,21.65094 l 1.76197,5.40937 1.835398,-6.90937 c 1.00946,-3.80015 2.07817,-8.03437 2.37491,-9.40937 z m -4.017058,4.4 c -0.35589,-0.92744 -0.42208,-1.91126 -0.14708,-2.18626 0.275,-0.275 0.79119,0.25882 1.147078,1.18626 0.35589,0.92744 0.42208,1.91126 0.14708,2.18626 -0.275,0.275 -0.791188,-0.25882 -1.147078,-1.18626 z m -56.6,-7.4 c -1.59524,-6.64971 -2.37905,-5.8659 -0.92308,0.92308 0.61512,2.86821 1.35017,4.98317 1.63343,4.6999 0.28327,-0.28326 -0.0364,-2.81361 -0.71035,-5.62298 z M 197.12921,76.78636 c 0.53669,-3.52205 0.11304,-2.85647 -1.59664,2.50842 -0.6378,2.00137 -0.61824,2.64665 0.0597,1.96875 0.55463,-0.55463 1.24627,-2.56936 1.53698,-4.47717 z m -30.14598,2.48812 c -0.32569,-0.84872 -0.80663,-1.32866 -1.06875,-1.06653 -0.26213,0.26213 -0.17998,0.95654 0.18255,1.54313 0.98605,1.59546 1.56238,1.28551 0.8862,-0.4766 z m 32.34791,-10.18784 c -0.25354,-0.97297 -0.47766,-0.41903 -0.49804,1.23097 -0.0204,1.65 0.18706,2.44606 0.46099,1.76903 0.27392,-0.67703 0.29059,-2.02703 0.0371,-3 z m 0.96929,-6.519034 c -0.27741,-0.687498 -0.50439,-0.125 -0.50439,1.250004 0,1.375 0.22698,1.9375 0.50439,1.25 0.27741,-0.6875 0.27741,-1.812504 0,-2.500004 z m -44.61447,-26.19248 c -1.06933,-2.23164 -2.40641,-5.29502 -2.97128,-6.80752 -1.43675,-3.84709 -2.67333,-3.45524 -6.08805,1.92921 -3.96515,6.25241 -4.41721,8.01373 -2.72565,10.61976 0.78578,1.21057 2.44699,5.275207 3.69158,9.032531 l 2.26289,6.831501 3.88738,-8.773988 3.88737,-8.773984 z m -4.79902,1.94563 c -0.0374,-2.47327 0.34134,-4.74983 0.84161,-5.05902 0.50035,-0.30923 0.9096,1.71403 0.9096,4.49686 0,2.78245 -0.37873,5.05901 -0.84162,5.05901 -0.46288,0 -0.8722,-2.02358 -0.90959,-4.49685 z m -37.44352,-0.27317 c 3.34734,-4.12091 3.40664,-4.33834 1.69795,-6.22642 -0.97378,-1.07602 -2.10921,-1.74707 -2.52318,-1.49122 -0.41396,0.25584 -1.08222,-0.54227 -1.48501,-1.77358 -0.58961,-1.80239 -0.95287,-1.13255 -1.86369,3.43658 -1.47003,7.37435 -2.20768,7.97595 -1.83104,1.49331 0.22045,-3.79441 0.0251,-4.76983 -0.73469,-3.66865 -0.56924,0.825 -1.04188,2.71094 -1.0503,4.19099 -0.008,1.48004 -0.51352,2.99889 -1.12244,3.37522 -0.75423,0.46614 -0.8894,-0.0729 -0.42405,-1.69098 0.59991,-2.08599 0.43681,-2.01686 -1.3394,0.56769 -1.11237,1.6186 -2.56042,5.18524 -3.217888,7.92586 -1.12944,4.708032 -1.06937,5.084993 1.088768,6.832545 l 2.28415,1.849596 3.52618,-5.27546 c 1.9394,-2.901501 5.08699,-7.196971 6.99464,-9.545481 z M 102.17927,184.88414 c -0.36254,-0.58659 -1.5326,-1.06653 -2.600138,-1.06653 -1.06754,0 -1.94098,-0.48032 -1.94098,-1.06739 0,-0.64167 0.89739,-0.79626 2.25,-0.3876 2.703698,0.81685 4.334578,2.20375 3.533468,3.00485 -0.32076,0.32076 -0.87982,0.10326 -1.24235,-0.48333 z m -32.541118,-2.04613 c 0,-0.43448 2.5875,-1.08976 5.75,-1.45618 3.1625,-0.36643 7.8875,-0.92626 10.5,-1.24406 3.06123,-0.37239 4.75,-0.19827 4.75,0.48974 0,1.09943 -3.88539,1.77159 -14.75,2.55169 -3.4375,0.24681 -6.25,0.0933 -6.25,-0.34119 z m -52,-2.0204 c 0.825,-0.53316 2.175,-0.96937 3,-0.96937 1.33333,0 1.33333,0.1077 0,0.96937 -0.825,0.53316 -2.175,0.96937 -3,0.96937 -1.33333,0 -1.33333,-0.1077 0,-0.96937 z m 105.269028,-0.69299 c 0.97297,-0.25354 2.32297,-0.23687 3,0.0371 0.67703,0.27393 -0.11903,0.48137 -1.76903,0.46099 -1.65,-0.0204 -2.20394,-0.2445 -1.23097,-0.49804 z m 6,0 c 0.97297,-0.25354 2.32297,-0.23687 3,0.0371 0.67703,0.27393 -0.11903,0.48137 -1.76903,0.46099 -1.65,-0.0204 -2.20394,-0.2445 -1.23097,-0.49804 z m 22.1962,-2.36326 c -0.43651,-0.7063 -6.33697,-0.89595 -17.80901,-0.57242 -13.3371,0.37613 -14.81883,0.3097 -6.65622,-0.29839 16.79184,-1.25095 30.68438,-1.95302 28.30529,-1.43042 -1.40262,0.3081 -1.99559,1.00097 -1.64301,1.91979 0.63339,1.65059 -1.2144,1.97139 -2.19705,0.38144 z m 18.30322,-1.1122 c 0.5811,-0.5811 1.64682,-0.85979 2.36826,-0.61931 0.74895,0.24965 0.29565,0.70294 -1.05655,1.05655 -1.66335,0.43497 -2.05378,0.30483 -1.31171,-0.43724 z m 13.73155,0.16845 c 0.33992,-0.55 1.51803,-1 2.61803,-1 1.1,0 1.72189,0.45 1.38197,1 -0.33992,0.55 -1.51803,1 -2.61803,1 -1.1,0 -1.72189,-0.45 -1.38197,-1 z m -173.3621984,-3 c -0.0368,-1.375 0.5761804,-3.625 1.3622004,-5 1.94758,-3.40694 1.85072,-4.51994 -0.25,-2.87244 -1.5912804,1.24796 -1.6237104,1.21153 -0.3575,-0.40173 0.76588,-0.97579 1.62676,-1.5399 1.91308,-1.25359 0.28631,0.28632 1.37144,-0.87856 2.41138,-2.58861 1.03995,-1.71005 2.1721,-2.8279 2.51589,-2.48411 0.3438,0.34379 -0.28229,1.85704 -1.3913,3.36278 -2.87467,3.90302 -4.57968,7.28533 -5.41284,10.7377 -0.6554504,2.71599 -0.7303204,2.76332 -0.7909104,0.5 z m 166.6801584,0.78204 c 0.53328,-0.53328 1.8049,-0.79255 2.82582,-0.57615 1.37482,0.29142 1.12336,0.54288 -0.9696,0.96961 -1.82482,0.37205 -2.48236,0.23268 -1.85622,-0.39346 z m -15.81796,-1.82354 c -3.025,-1.00997 -4.65221,-1.86381 -3.61602,-1.89741 2.76193,-0.0896 9.61602,2.11805 9.61602,3.0972 0,0.46294 -0.1125,0.79555 -0.25,0.73912 -0.1375,-0.0564 -2.725,-0.92893 -5.75,-1.93891 z m 22.5,0.0415 c 2.75248,-1.18278 3.731,-1.18278 3,0 -0.33992,0.55 -1.60398,0.96837 -2.80902,0.92971 -2.11236,-0.0678 -2.11922,-0.10112 -0.19098,-0.92971 z m 7,-1.45239 c 1.65,-0.72172 4.575,-1.58439 6.5,-1.91704 l 3.5,-0.60482 -3,1.34788 c -1.65,0.74133 -4.575,1.604 -6.5,1.91704 l -3.5,0.56917 z m -6.5,-2.54761 c -0.90129,-0.58246 -1.02463,-0.97549 -0.30902,-0.98469 0.65504,-0.008 1.4691,0.43469 1.80902,0.98469 0.7673,1.24153 0.42112,1.24153 -1.5,0 z M 48.638152,167.59034 c 0,-0.425 0.5625,-0.80265 1.25,-0.83921 8.70119,-0.46279 14.31218,-1.23005 14.58333,-1.99417 0.18334,-0.51664 0.76167,-0.93935 1.28519,-0.93935 0.58184,0 0.55913,0.7338 -0.0584,1.88768 -1.0007,1.86982 -8.06011,3.54401 -8.06011,1.91152 0,-0.43956 -0.47656,-0.7992 -1.05902,-0.7992 -0.58246,0 -0.84411,0.34773 -0.58144,0.77273 0.26266,0.425 -1.28578,0.77272 -3.44099,0.77272 -2.1552,0 -3.91855,-0.34772 -3.91855,-0.77272 z m 190.499998,-4.32683 c -5.5,-2.97778 -9.325,-5.40809 -8.5,-5.40068 0.825,0.007 6,2.46694 11.5,5.46562 5.5,2.99867 9.325,5.42898 8.5,5.40068 -0.825,-0.0283 -6,-2.48784 -11.5,-5.46562 z m -199.499998,3.13125 c 2.78621,-1.67872 4.97746,-2.11668 3.45,-0.68954 -0.5225,0.48818 -2.075,1.18195 -3.45,1.54171 l -2.5,0.65411 z m 171.499998,-1.57715 c 0.33992,-0.55 1.60398,-0.96837 2.80902,-0.92971 2.11236,0.0678 2.11922,0.10112 0.19098,0.92971 -2.75248,1.18278 -3.731,1.18278 -3,0 z m -20.5,-1.25 c 0,-0.4125 0.47158,-0.75 1.04797,-0.75 0.57638,0 2.11309,-1.2375 3.41492,-2.75 1.30183,-1.5125 2.74275,-2.36331 3.20204,-1.89069 0.45929,0.47262 -0.18317,1.54382 -1.42768,2.38044 -1.97074,1.32482 -2.06516,1.6656 -0.73165,2.64069 1.23638,0.90406 0.85386,1.11956 -1.98725,1.11956 -1.93509,0 -3.51835,-0.3375 -3.51835,-0.75 z m -10,-0.75 c 0,-0.55 0.45,-1 1,-1 0.55,0 1,0.45 1,1 0,0.55 -0.45,1 -1,1 -0.55,0 -1,-0.45 -1,-1 z m 24.24416,-0.0768 c 0.95929,-0.55881 4.10929,-1.20486 7,-1.43567 l 5.25584,-0.41966 -5,1.37008 c -2.75,0.75355 -5.9,1.3996 -7,1.43567 -1.82795,0.0599 -1.84996,-0.0218 -0.25584,-0.95042 z"
       id="path22" />
  </g>
</svg>
