<?xml version="1.0" standalone="no"?>
<!DOCTYPE svg PUBLIC "-//W3C//DTD SVG 20010904//EN"
 "http://www.w3.org/TR/2001/REC-SVG-20010904/DTD/svg10.dtd">
<svg version="1.0" xmlns="http://www.w3.org/2000/svg"
 width="512.000000pt" height="512.000000pt" viewBox="0 0 512.000000 512.000000"
 preserveAspectRatio="xMidYMid meet">
<metadata>
Created by potrace 1.16, written by Peter Selinger 2001-2019
</metadata>
<g transform="translate(0.000000,512.000000) scale(0.100000,-0.100000)"
fill="#57e089" stroke="none">
<path d="M2464 5081 c-79 -59 -288 -295 -414 -468 -41 -57 -77 -103 -81 -103
-4 0 -49 26 -100 58 -230 143 -531 283 -611 284 -52 0 -106 -26 -130 -65 -58
-89 -175 -448 -233 -712 -4 -21 -5 -21 -107 -3 -154 26 -459 50 -578 46 -114
-4 -147 -16 -185 -66 -19 -25 -20 -42 -19 -257 1 -237 13 -361 55 -570 89
-433 254 -798 486 -1071 23 -28 43 -53 43 -56 0 -3 -38 -28 -86 -57 -176 -108
-453 -340 -489 -412 -19 -36 -19 -112 -1 -148 8 -15 58 -68 110 -119 247 -236
563 -426 841 -507 254 -73 526 -73 781 1 48 13 95 29 106 35 11 6 21 9 23 7 1
-2 15 -34 30 -73 100 -252 276 -520 488 -738 l83 -87 84 0 84 0 83 87 c212
218 388 486 488 738 15 39 29 71 30 73 2 2 12 -1 23 -7 11 -6 58 -22 106 -35
472 -137 946 -24 1425 338 117 89 286 247 307 287 18 36 18 112 -1 148 -36 72
-313 304 -489 412 -48 29 -86 54 -86 57 0 3 20 28 43 56 232 273 397 638 486
1071 42 209 54 333 55 570 1 215 0 232 -19 257 -38 50 -71 62 -185 66 -119 4
-424 -20 -578 -46 -102 -18 -103 -18 -107 3 -58 264 -175 623 -233 712 -24 39
-78 65 -130 65 -80 -1 -381 -141 -611 -284 -51 -32 -96 -58 -100 -58 -4 0 -40
46 -81 103 -126 173 -335 409 -414 468 -32 24 -49 29 -96 29 -47 0 -64 -5 -96
-29z m173 -428 c297 -338 517 -749 588 -1100 111 -555 -106 -1151 -637 -1747
l-28 -31 -27 31 c-472 529 -702 1072 -662 1561 30 380 209 784 521 1175 94
118 157 188 169 188 4 0 39 -35 76 -77z m-1042 -286 c137 -78 216 -131 211
-141 -2 -6 -27 -61 -54 -121 -28 -61 -65 -153 -83 -205 -18 -52 -34 -97 -36
-99 -1 -2 -51 19 -110 46 -86 40 -235 100 -320 128 -18 6 54 293 114 457 l25
67 92 -46 c50 -25 123 -63 161 -86z m2250 -66 c54 -181 85 -322 72 -326 -85
-28 -234 -88 -320 -128 -59 -27 -109 -48 -110 -46 -2 2 -18 47 -36 99 -18 52
-55 144 -83 205 -27 60 -52 115 -54 121 -3 6 10 20 28 31 18 11 65 40 103 63
39 24 129 74 200 111 l130 68 18 -41 c10 -23 33 -94 52 -157z m-3250 -517
c335 -41 659 -139 900 -273 l69 -39 -3 -83 c-1 -46 -5 -87 -7 -91 -8 -13 15
-290 31 -373 51 -267 156 -531 318 -800 64 -106 184 -279 249 -357 l40 -48
-29 5 c-15 2 -77 12 -138 21 -391 57 -752 197 -1012 393 -153 115 -312 303
-416 491 -149 269 -262 695 -284 1068 l-6 113 84 -6 c46 -4 138 -13 204 -21z
m4212 -86 c-20 -337 -114 -720 -241 -983 -160 -329 -405 -580 -721 -738 -238
-119 -521 -203 -816 -241 l-98 -12 38 45 c169 203 352 513 451 762 119 297
169 633 135 906 -3 31 0 35 62 69 305 171 681 268 1172 302 l24 2 -6 -112z
m-3895 -1872 c277 -192 724 -349 1133 -398 58 -7 105 -15 105 -19 0 -12 -159
-110 -260 -161 -306 -154 -604 -179 -894 -74 -189 69 -414 202 -572 338 -38
33 -48 47 -39 54 7 5 44 34 81 65 111 89 345 238 376 239 4 0 35 -20 70 -44z
m3427 15 c114 -58 402 -265 401 -289 -1 -12 -156 -132 -259 -200 -169 -111
-376 -199 -539 -227 -230 -40 -464 0 -712 123 -99 50 -260 149 -260 161 0 4
48 12 108 19 405 48 865 210 1127 397 33 24 64 44 68 44 4 1 34 -12 66 -28z
m-1675 -595 c56 -46 146 -111 199 -146 l96 -63 -26 -71 c-37 -104 -106 -238
-179 -346 -69 -104 -183 -250 -194 -250 -12 0 -129 150 -195 250 -72 109 -142
243 -178 346 l-25 71 106 71 c59 39 148 104 197 146 50 41 91 75 93 75 1 1 49
-37 106 -83z"/>
</g>
</svg>
