<?xml version="1.0" standalone="no"?>
<!DOCTYPE svg PUBLIC "-//W3C//DTD SVG 20010904//EN"
 "http://www.w3.org/TR/2001/REC-SVG-20010904/DTD/svg10.dtd">
<svg version="1.0" xmlns="http://www.w3.org/2000/svg"
 width="880.000000pt" height="731.000000pt" viewBox="0 0 880.000000 731.000000"
 preserveAspectRatio="xMidYMid meet">
<metadata>
Created by potrace 1.16, written by Peter Selinger 2001-2019
</metadata>
<g transform="translate(0.000000,731.000000) scale(0.100000,-0.100000)"
fill="#000000" stroke="none">
<path d="M5190 6903 c-8 -3 -72 -64 -141 -135 l-126 -130 -43 7 c-42 7 -43 7
-104 -56 -79 -82 -157 -186 -240 -323 -43 -69 -63 -113 -57 -119 6 -6 17 8 30
38 28 62 133 222 208 315 68 84 116 117 156 106 66 -16 187 -228 260 -456 47
-145 62 -180 78 -180 30 0 -43 245 -118 395 -25 50 -65 118 -89 153 -50 72
-51 68 23 164 60 79 167 168 201 168 38 0 146 -115 201 -215 25 -44 57 -94 73
-111 l29 -31 -69 -114 c-37 -63 -85 -137 -105 -165 -39 -54 -45 -74 -24 -74 7
0 21 17 31 37 24 50 190 325 239 395 83 121 136 121 212 3 63 -99 95 -248 102
-478 5 -163 5 -169 -16 -183 -11 -8 -21 -22 -21 -30 0 -24 29 -16 44 14 27 49
153 172 177 172 5 0 9 -10 9 -22 0 -11 7 -57 16 -101 13 -64 15 -118 11 -261
-7 -256 -29 -356 -136 -640 -23 -60 -46 -138 -50 -175 -5 -36 -12 -74 -16 -83
-15 -38 11 -15 40 33 17 28 40 68 51 88 33 55 151 414 173 526 39 196 44 492
11 603 -18 57 -51 92 -89 92 -24 0 -39 -11 -78 -56 -26 -31 -60 -70 -75 -88
l-27 -31 -1 96 c0 122 -23 288 -54 406 -34 125 -47 153 -93 201 -69 73 -116
56 -204 -74 -27 -41 -51 -74 -53 -74 -2 0 -1 10 1 23 8 42 -169 290 -249 348
-39 28 -65 34 -98 22z"/>
<path d="M4030 6794 c-43 -37 -39 -28 -182 -413 -8 -22 -10 -21 -76 40 -76 71
-223 163 -262 164 -15 0 -26 -6 -28 -17 -2 -12 20 -28 80 -59 64 -33 102 -63
166 -127 45 -47 82 -89 82 -94 0 -14 -47 -130 -97 -241 -25 -54 -42 -104 -39
-112 3 -10 -7 -21 -32 -34 -101 -51 -151 -140 -181 -320 l-16 -99 -58 58 c-57
59 -126 100 -165 100 -11 0 -34 -11 -49 -24 -32 -28 -31 -5 -18 -441 5 -175 4
-247 -3 -240 -12 11 -102 208 -134 293 -24 64 -18 81 7 20 10 -24 20 -38 22
-31 2 7 -14 54 -37 105 -40 90 -52 140 -101 428 -17 96 -15 330 3 390 9 28 21
46 31 48 28 6 146 -55 224 -114 89 -68 172 -157 249 -264 32 -45 60 -77 62
-71 6 18 -121 181 -200 256 -40 39 -102 93 -138 120 -36 27 -67 50 -69 52 -2
1 1 8 6 15 6 7 14 27 17 44 4 18 32 74 62 124 30 51 52 95 50 98 -3 2 -27 -30
-53 -73 -26 -43 -68 -100 -92 -126 -42 -48 -44 -48 -72 -34 -38 20 -62 19 -90
-4 -24 -19 -24 -21 -22 -198 1 -140 7 -210 27 -327 34 -199 34 -201 -15 -131
-107 153 -293 357 -430 471 -69 57 -77 68 -69 87 4 12 14 62 20 111 13 100 34
162 61 176 63 34 143 -5 269 -134 41 -42 78 -76 82 -76 23 0 -1 32 -81 110
-164 161 -297 196 -354 94 -4 -7 -14 -65 -22 -130 -9 -66 -17 -124 -20 -131
-2 -8 -16 -5 -44 9 -49 24 -98 19 -128 -15 -11 -12 -31 -53 -43 -91 -19 -59
-22 -81 -16 -150 10 -121 53 -382 75 -456 58 -196 178 -517 233 -625 141 -276
195 -390 187 -393 -14 -5 -132 36 -257 90 -130 55 -167 60 -183 24 -9 -20 -5
-36 24 -98 20 -41 52 -115 73 -164 56 -136 79 -177 187 -337 193 -285 402
-510 588 -632 117 -78 301 -168 448 -220 57 -20 122 -45 145 -54 l41 -18 -50
-7 c-117 -15 -436 -36 -650 -42 -502 -14 -956 48 -1400 193 -170 55 -309 117
-479 212 -153 85 -208 122 -382 252 -126 94 -164 136 -164 182 0 36 210 54
440 38 298 -21 462 -52 815 -154 105 -30 247 -69 316 -86 69 -16 137 -35 152
-40 15 -6 27 -7 27 -2 0 8 -152 75 -245 108 -91 32 -471 145 -567 168 -218 52
-925 115 -1022 91 -34 -8 -66 -60 -66 -106 1 -45 30 -129 61 -174 35 -53 154
-133 329 -224 263 -137 452 -216 729 -306 379 -124 686 -185 1086 -218 174
-14 1033 -18 1170 -6 l80 8 -75 -31 c-127 -50 -290 -135 -401 -208 -94 -60
-114 -79 -162 -147 -103 -146 -150 -307 -237 -809 -73 -422 -129 -607 -277
-912 -13 -28 -23 -64 -21 -79 4 -33 47 -67 86 -67 51 0 197 91 296 184 164
154 256 227 389 310 119 74 149 100 303 253 172 173 289 317 376 462 138 234
213 413 225 539 5 57 2 75 -27 152 -18 49 -37 92 -42 98 -13 14 -25 -9 -33
-64 -4 -25 -15 -57 -25 -71 -9 -14 -23 -43 -30 -65 -34 -107 -167 -420 -212
-503 -62 -111 -187 -270 -290 -368 -41 -39 -142 -117 -224 -174 -228 -158
-340 -246 -440 -342 -81 -78 -117 -106 -100 -79 22 35 83 307 116 516 87 545
123 702 189 834 91 180 242 283 526 362 119 32 169 41 243 43 79 2 95 5 113
23 48 47 27 162 -33 191 -19 9 -28 21 -28 38 0 28 0 28 47 9 20 -8 37 -14 39
-12 2 1 -33 34 -77 72 -187 161 -308 324 -400 537 -47 108 -102 284 -120 388
-19 106 -17 339 4 417 19 73 66 170 95 196 20 18 22 17 89 -19 224 -122 501
-358 609 -520 97 -145 194 -384 194 -478 0 -49 -29 -161 -58 -226 -11 -25 -38
-69 -61 -99 -46 -61 -53 -104 -21 -121 28 -15 50 -1 108 69 140 168 185 324
138 484 -29 100 -142 324 -215 426 -73 102 -217 255 -365 388 l-89 79 25 40
c80 126 202 172 344 129 45 -13 154 -91 162 -115 2 -5 -38 -67 -88 -137 -100
-140 -112 -178 -56 -178 26 0 30 5 46 57 48 157 266 455 371 509 66 33 110 34
174 5 62 -28 182 -128 205 -170 7 -14 17 -26 22 -26 19 0 -59 126 -107 175
-117 119 -237 125 -355 19 -24 -22 -70 -75 -103 -119 -33 -44 -63 -84 -67 -88
-4 -5 -43 16 -86 45 -94 64 -168 85 -265 74 l-62 -7 6 134 c7 143 2 163 -40
155 -30 -5 -26 -88 13 -269 5 -21 -1 -30 -36 -53 -23 -15 -59 -54 -81 -88 -22
-34 -41 -64 -44 -66 -2 -2 -31 17 -64 42 -114 88 -169 97 -239 39 -33 -27 -55
-58 -83 -119 -60 -127 -73 -194 -74 -379 0 -141 3 -176 29 -290 37 -168 83
-298 156 -446 93 -188 151 -260 301 -381 l40 -33 -27 -7 c-35 -9 -249 17 -389
48 -221 49 -443 152 -630 293 -199 149 -492 511 -596 736 -62 134 -118 355
-90 355 37 0 336 -85 408 -116 105 -45 289 -154 393 -232 113 -86 308 -248
372 -311 32 -30 60 -52 63 -49 11 10 -143 186 -218 248 -97 82 -334 238 -482
319 -144 78 -131 69 -117 83 21 21 13 59 -33 174 -57 142 -108 391 -130 632
-5 56 -3 72 7 72 46 0 238 -231 365 -440 109 -179 130 -225 193 -431 43 -136
77 -225 86 -217 20 20 -64 300 -135 454 -39 83 -138 243 -245 394 -75 107
-238 303 -269 323 -34 22 -71 3 -75 -39 -3 -33 37 -286 68 -424 21 -96 60
-312 60 -332 -1 -21 -85 117 -154 252 -71 139 -118 271 -177 498 -57 220 -69
311 -69 507 0 147 3 176 20 213 18 39 22 42 47 36 107 -25 221 -112 418 -316
172 -178 254 -302 290 -437 13 -47 33 -110 44 -140 12 -29 38 -106 57 -170 42
-138 49 -148 90 -126 26 13 29 13 32 -1 2 -9 -1 -45 -7 -80 -16 -92 1 -245 56
-494 25 -113 48 -216 50 -230 10 -60 14 -69 33 -75 23 -7 60 10 60 29 0 7 -22
60 -49 117 -98 211 -126 336 -126 569 0 166 2 179 28 255 16 44 36 88 44 98
23 25 65 21 109 -11 54 -40 181 -176 228 -245 22 -31 42 -55 44 -52 20 20
-259 341 -318 365 -64 26 -108 -22 -130 -142 -15 -86 -24 -76 -39 47 -13 111
-15 504 -1 539 5 14 19 30 31 36 50 27 167 -52 235 -158 48 -74 165 -310 204
-412 33 -85 50 -116 50 -92 0 26 -63 173 -139 325 -60 119 -76 159 -66 163 11
5 13 20 8 68 -11 124 34 276 98 330 46 39 127 76 167 76 18 0 50 -9 70 -19 49
-25 124 -106 147 -159 10 -23 22 -42 27 -42 12 0 11 5 -21 74 -33 74 -104 149
-168 178 -48 21 -47 18 -33 108 15 90 41 167 127 368 82 191 132 289 164 318
19 17 21 17 54 0 18 -10 76 -60 128 -110 90 -87 98 -98 163 -230 37 -76 70
-134 72 -127 6 17 -110 246 -177 348 -129 199 -213 252 -291 187z"/>
<path d="M7044 6045 c-32 -16 -39 -25 -196 -240 -108 -148 -112 -155 -100
-155 5 0 25 24 46 54 76 110 159 182 255 220 40 15 45 16 61 1 35 -32 42 -95
25 -236 -22 -193 -114 -551 -190 -744 -82 -208 -309 -558 -560 -865 -34 -41
-102 -131 -152 -200 -50 -69 -125 -163 -167 -210 -76 -83 -94 -115 -82 -145
17 -46 73 2 164 140 33 50 89 128 126 175 312 396 427 570 619 940 122 236
165 344 233 594 134 487 141 525 105 599 -12 24 -30 52 -41 62 -27 25 -107 30
-146 10z"/>
<path d="M5235 5958 c-114 -90 -354 -353 -469 -515 -33 -46 -62 -83 -65 -83
-3 0 -19 39 -34 88 -33 100 -132 311 -178 379 -77 111 -169 165 -248 143 -48
-13 -114 -81 -145 -150 -33 -72 -82 -270 -101 -406 -19 -134 -19 -134 3 -134
15 0 18 12 19 98 2 114 28 245 73 362 25 64 45 96 84 137 46 47 57 53 93 53
66 0 148 -73 216 -192 75 -131 194 -403 195 -446 1 -13 9 -30 18 -37 29 -21
52 2 103 106 57 115 170 267 272 366 100 98 230 194 245 182 22 -18 43 -133
50 -271 4 -76 11 -138 16 -138 17 0 -11 344 -34 425 -6 22 -16 46 -21 53 -16
21 -51 13 -92 -20z"/>
<path d="M5587 5633 c-54 -57 -104 -233 -91 -319 9 -59 30 -57 38 4 17 117 49
215 83 254 12 13 20 15 35 7 29 -15 74 -93 99 -168 21 -65 39 -98 39 -73 0 16
-84 241 -104 281 -26 49 -60 54 -99 14z"/>
<path d="M5307 5413 c-7 -12 -16 -84 -27 -212 -5 -63 -11 -116 -14 -118 -2 -3
-17 4 -33 16 -27 19 -61 26 -113 22 -21 -1 -18 -4 20 -22 25 -11 62 -38 83
-61 34 -37 37 -45 37 -99 0 -32 4 -60 8 -63 5 -3 12 63 15 147 8 169 25 268
58 327 12 21 19 45 16 54 -6 16 -42 22 -50 9z"/>
<path d="M6383 5355 c-16 -19 -48 -71 -72 -116 -24 -45 -132 -212 -239 -373
-108 -160 -207 -308 -221 -328 -13 -21 -26 -36 -28 -34 -3 2 0 39 6 81 27 189
3 469 -50 609 -28 73 -85 126 -135 126 -30 0 -45 -9 -95 -57 -86 -82 -126
-147 -261 -423 -172 -351 -228 -490 -327 -815 -73 -237 -106 -370 -126 -506
-17 -119 -20 -286 -5 -309 7 -10 10 8 10 60 0 205 68 549 172 870 83 256 252
640 360 818 58 95 168 215 214 232 26 10 31 9 52 -17 28 -35 68 -158 88 -277
29 -165 -5 -548 -57 -651 -12 -23 -17 -41 -11 -43 23 -7 -91 -373 -173 -555
-67 -148 -128 -245 -203 -324 -53 -55 -142 -113 -174 -113 -65 0 -113 -43
-101 -88 4 -18 -2 -22 -39 -31 -140 -35 -175 -47 -238 -77 -55 -26 -100 -38
-212 -55 -79 -11 -145 -23 -147 -25 -2 -2 -1 -9 2 -17 4 -11 20 -12 104 0 54
7 120 17 146 23 26 5 78 10 115 10 44 0 122 14 232 41 91 22 255 62 365 89
239 59 295 69 295 49 0 -8 -18 -41 -39 -75 -27 -43 -62 -78 -121 -123 -205
-154 -418 -215 -675 -192 -115 11 -329 51 -404 76 -59 20 -94 19 -122 -4 -20
-16 -22 -22 -12 -44 7 -14 26 -33 42 -41 50 -26 306 -74 486 -91 l169 -16 54
-47 c30 -26 152 -164 271 -307 286 -344 380 -422 576 -476 150 -41 451 -25
780 42 230 48 440 111 825 249 63 22 202 67 308 100 237 72 275 92 291 154 6
25 11 51 11 58 0 15 -81 48 -115 48 -15 0 -16 3 -7 12 14 14 16 97 2 132 -5
14 -31 46 -56 71 -140 133 -1089 527 -1345 557 -52 6 -97 14 -101 17 -4 4 79
37 185 75 514 184 870 329 1182 481 163 79 354 202 452 290 83 74 141 186 127
242 -12 49 -51 75 -116 80 -90 7 -1254 -149 -1276 -172 -18 -18 35 -13 265 23
416 67 499 75 728 76 219 1 285 -9 285 -41 0 -23 -64 -105 -126 -163 -133
-121 -512 -377 -686 -463 -217 -107 -702 -287 -917 -342 -138 -34 -284 -53
-461 -60 -85 -3 -162 -8 -172 -11 -24 -7 -32 -52 -13 -80 15 -23 20 -24 75
-18 43 5 64 3 76 -7 11 -9 63 -13 192 -14 164 -2 186 -4 297 -34 178 -47 304
-92 508 -182 295 -131 450 -226 600 -368 l57 -54 0 31 c0 56 28 39 46 -27 16
-55 20 -60 51 -68 19 -4 35 -12 35 -18 0 -14 -315 -175 -487 -249 -369 -157
-667 -226 -1047 -242 -287 -13 -465 28 -643 147 -79 53 -134 102 -259 233 -92
97 -192 191 -240 226 -69 50 -116 97 -104 104 2 1 30 7 63 14 70 14 319 137
441 218 175 115 249 251 201 367 -18 41 -40 59 -83 66 l-35 6 106 120 c175
197 336 420 425 588 29 54 72 157 96 230 50 148 47 137 35 137 -5 0 -12 -12
-16 -27 -19 -77 -167 -346 -298 -543 -129 -193 -341 -418 -475 -504 -40 -25
-72 -52 -72 -61 0 -18 -22 -30 -102 -55 -84 -26 -86 -26 -46 18 83 92 178 264
263 477 56 140 173 506 217 676 22 86 30 101 180 322 86 128 207 309 267 402
122 190 171 252 189 241 15 -9 16 -176 2 -228 -12 -41 1 -82 23 -75 25 8 37
58 43 190 6 118 5 139 -10 161 -24 37 -58 34 -93 -9z"/>
<path d="M4264 5272 c-27 -18 -31 -48 -23 -157 11 -124 29 -216 44 -216 16 -1
54 135 67 236 11 83 10 95 -5 119 -17 26 -58 35 -83 18z"/>
<path d="M4600 5180 c-12 -8 -15 -41 -15 -200 0 -104 2 -190 5 -190 8 0 111
322 110 346 0 42 -61 69 -100 44z"/>
<path d="M3891 4978 c-13 -40 5 -136 40 -213 l22 -50 14 55 c23 97 -4 240 -46
240 -13 0 -23 -10 -30 -32z"/>
</g>
</svg>
