<?xml version="1.0" standalone="no"?>
<!DOCTYPE svg PUBLIC "-//W3C//DTD SVG 20010904//EN"
 "http://www.w3.org/TR/2001/REC-SVG-20010904/DTD/svg10.dtd">
<svg version="1.0" xmlns="http://www.w3.org/2000/svg"
 width="473.000000pt" height="280.000000pt" viewBox="0 0 473.000000 280.000000"
 preserveAspectRatio="xMidYMid meet">
<metadata>
Created by potrace 1.16, written by Peter Selinger 2001-2019
</metadata>
<g transform="translate(0.000000,280.000000) scale(0.100000,-0.100000)"
fill="#000000" stroke="none">
<path d="M1872 2627 c-64 -111 -114 -244 -168 -444 -1 -7 -44 16 -100 53 -138
93 -347 194 -399 194 -27 0 -52 -302 -37 -455 6 -55 9 -101 8 -102 -1 -2 -47
8 -101 22 -114 29 -298 55 -391 55 -63 0 -64 0 -64 -27 1 -80 64 -291 131
-432 21 -46 39 -85 39 -87 0 -2 -22 -4 -49 -4 -135 0 -501 -88 -501 -121 0
-14 76 -136 123 -199 23 -30 83 -97 132 -149 64 -67 86 -95 75 -99 -8 -3 -60
-28 -116 -57 -112 -58 -198 -113 -292 -189 l-63 -50 47 -41 c283 -245 778
-415 1141 -392 195 13 424 76 618 171 111 55 263 150 300 188 l20 21 -35 -21
c-212 -125 -380 -193 -590 -238 -120 -26 -410 -26 -530 -1 -194 42 -408 133
-578 247 -51 34 -92 63 -92 64 0 7 170 116 240 154 l75 41 79 -54 c220 -151
431 -228 706 -256 196 -20 473 9 640 65 41 14 64 24 50 21 -14 -2 -64 -11
-112 -19 -297 -52 -630 -16 -883 94 -91 40 -286 161 -314 193 -11 14 -3 19 56
37 37 12 117 29 176 40 l108 18 81 -54 c223 -149 544 -258 793 -270 l90 -4
-98 19 c-238 47 -445 129 -627 249 -57 38 -79 58 -67 60 29 6 226 -26 319 -52
64 -18 108 -38 173 -81 81 -53 318 -175 340 -175 6 0 -22 18 -62 40 -86 46
-183 108 -183 115 0 9 141 -65 214 -112 l68 -44 -28 34 c-16 19 -50 58 -75 88
-25 30 -58 72 -74 94 -29 40 -29 40 24 -10 29 -27 75 -80 104 -117 28 -37 53
-66 54 -64 2 2 -8 27 -21 57 -28 63 -78 220 -73 226 13 13 109 -264 101 -290
-4 -14 -3 -17 6 -12 9 6 11 29 5 87 -3 43 -3 120 1 171 l8 92 8 -85 c4 -47 5
-119 1 -162 -6 -85 0 -106 25 -86 13 11 15 10 9 -5 -5 -12 10 -6 51 21 91 61
222 131 222 118 0 -6 -119 -81 -190 -120 -36 -20 -60 -36 -55 -36 22 0 241
113 328 169 51 33 112 67 134 75 66 23 221 54 308 61 l80 7 -55 -41 c-74 -54
-263 -151 -380 -194 -84 -31 -271 -78 -355 -90 -17 -2 -7 -5 25 -5 119 -4 365
48 517 109 112 44 244 113 330 170 l73 50 92 -15 c101 -17 238 -52 252 -66 22
-21 -277 -198 -414 -245 -245 -83 -562 -102 -834 -50 -44 8 -81 13 -83 11 -5
-5 138 -43 227 -61 267 -55 605 -34 840 51 105 37 254 114 348 178 l80 54 81
-44 c106 -56 234 -145 224 -155 -4 -4 -46 -32 -93 -63 -169 -113 -387 -203
-587 -243 -131 -26 -384 -24 -518 5 -199 44 -423 133 -571 227 -99 63 -38 9
74 -66 247 -165 544 -268 824 -285 238 -15 532 50 794 176 101 49 276 161 347
223 l38 33 -49 42 c-99 83 -326 220 -422 254 -11 4 10 31 71 94 135 140 276
342 252 364 -34 32 -309 96 -452 107 -50 3 -91 8 -91 10 0 2 12 27 26 55 64
127 144 383 144 462 l0 29 -117 -6 c-124 -6 -239 -25 -362 -58 -40 -11 -75
-18 -76 -17 -2 2 1 48 6 103 10 105 5 269 -12 370 -17 102 -11 97 -85 69 -101
-38 -232 -107 -338 -178 -56 -37 -99 -60 -100 -53 -53 196 -120 369 -179 464
l-32 52 -67 -57 c-85 -73 -186 -187 -255 -284 -30 -43 -56 -78 -58 -78 -2 0
-28 36 -59 79 -58 84 -197 235 -276 301 l-47 39 -41 -72z m194 -324 c33 -37
79 -93 102 -124 l42 -56 -35 -76 c-20 -42 -49 -118 -66 -169 -16 -51 -31 -93
-33 -95 -1 -2 -17 17 -35 42 -18 25 -72 89 -121 144 l-88 98 29 87 c16 47 45
122 65 166 35 76 37 78 58 65 11 -8 48 -45 82 -82z m660 -147 l34 -100 -78
-80 c-43 -45 -98 -107 -122 -139 l-44 -58 -41 118 c-23 65 -54 142 -68 172
-17 36 -23 60 -17 70 16 29 169 209 202 236 l33 28 34 -74 c19 -41 49 -119 67
-173z m-1258 -36 c54 -27 120 -65 147 -83 l50 -34 0 -187 c0 -102 -1 -186 -2
-186 -1 0 -33 20 -70 44 -37 24 -109 64 -160 89 l-91 46 -7 56 c-7 53 2 282
12 298 8 13 24 8 121 -43z m1776 28 c11 -53 16 -202 10 -270 l-6 -73 -57 -25
c-30 -13 -103 -53 -160 -87 -58 -35 -105 -63 -105 -63 -1 0 -1 85 -2 188 l0
189 35 23 c51 34 254 139 268 140 7 0 15 -10 17 -22z m-899 -260 c24 -51 53
-125 65 -164 l23 -71 -46 -114 c-25 -63 -56 -154 -69 -203 -17 -70 -23 -84
-29 -65 -37 129 -76 245 -104 307 l-33 75 28 81 c43 126 99 246 116 246 3 0
25 -42 49 -92z m462 -190 l6 -157 -74 -79 c-41 -43 -101 -117 -134 -163 l-60
-85 2 214 2 214 28 37 c14 20 67 78 117 129 109 112 106 116 113 -110z m-909
107 c45 -47 95 -104 112 -128 l30 -43 3 -210 2 -210 -58 82 c-32 46 -92 118
-133 162 l-74 80 0 124 c0 152 9 228 25 228 7 0 49 -38 93 -85z m-789 -85 c51
-10 95 -21 97 -23 2 -2 15 -42 29 -90 14 -48 40 -125 59 -172 19 -47 31 -85
27 -85 -4 0 -48 9 -98 20 -50 11 -130 23 -177 26 l-85 7 -30 72 c-31 74 -81
236 -81 263 0 13 12 14 83 8 45 -3 124 -15 176 -26z m2631 17 c0 -23 -40 -152
-76 -244 l-36 -93 -38 0 c-33 0 -198 -25 -297 -46 l-31 -6 37 93 c21 52 48
131 61 176 15 52 30 85 39 87 16 5 156 32 201 39 61 10 140 7 140 -6z m-2230
-157 c41 -20 97 -51 124 -67 49 -31 50 -32 86 -145 20 -62 55 -152 77 -200
l41 -87 -86 59 c-48 32 -132 83 -186 112 -99 52 -100 54 -123 111 -23 57 -64
192 -78 254 l-7 33 39 -16 c21 -9 72 -33 113 -54z m1704 8 c-18 -76 -49 -176
-77 -241 -19 -45 -26 -51 -108 -93 -49 -24 -131 -73 -182 -108 l-95 -64 39 82
c21 44 55 135 76 200 l38 119 54 35 c51 32 248 132 263 132 3 0 0 -28 -8 -62z
m-1040 -195 c20 -48 49 -127 63 -177 25 -85 26 -105 27 -306 l1 -215 -31 100
c-17 55 -49 144 -72 197 -40 93 -42 103 -48 230 -7 137 1 272 16 263 4 -3 24
-44 44 -92z m301 -157 c-8 -140 -15 -170 -64 -287 -22 -52 -50 -131 -63 -175
l-23 -79 1 220 c0 194 3 229 22 296 28 97 91 254 109 272 13 14 24 -130 18
-247z m291 77 c-45 -172 -111 -306 -196 -399 -40 -44 -100 -115 -132 -159 -33
-44 -62 -82 -65 -85 -2 -2 10 27 27 65 17 39 47 120 67 180 47 149 52 158 120
251 63 85 183 217 190 210 2 -2 -3 -31 -11 -63z m-860 -34 c85 -97 184 -235
184 -255 0 -24 52 -178 91 -269 21 -49 30 -79 21 -65 -36 52 -132 170 -191
232 -42 45 -74 92 -100 149 -61 130 -114 299 -93 299 5 0 45 -41 88 -91z
m-672 -34 c164 -25 165 -25 224 -109 30 -41 92 -113 138 -161 46 -48 76 -84
67 -80 -47 17 -222 55 -309 65 l-98 12 -45 50 c-53 59 -136 170 -157 211 l-15
27 48 0 c27 0 92 -7 147 -15z m2290 -27 c-36 -57 -146 -198 -175 -224 -18 -16
-51 -25 -139 -38 -102 -14 -230 -42 -286 -62 -10 -4 24 37 76 92 53 54 117
129 143 165 45 63 49 67 104 78 103 22 157 29 231 30 l72 1 -26 -42z m281 27
c78 -10 265 -56 265 -65 0 -15 -145 -202 -188 -244 l-40 -38 -92 22 c-51 12
-133 27 -181 33 l-88 12 67 76 c37 42 90 108 117 147 38 54 55 70 70 67 11 -2
43 -7 70 -10z m-2902 -24 c25 -42 102 -138 160 -198 56 -58 56 -58 -38 -67
-33 -4 -109 -18 -170 -33 l-109 -26 -61 64 c-58 62 -149 182 -161 212 -8 21
205 72 316 76 41 1 48 -2 63 -28z m720 -92 c180 -90 281 -166 355 -266 33 -44
91 -114 129 -154 37 -40 61 -69 53 -64 -8 5 -48 31 -89 57 -41 27 -117 70
-169 96 -79 39 -107 60 -170 127 -94 99 -196 235 -177 235 3 0 34 -14 68 -31z
m1375 -31 c-24 -34 -86 -107 -138 -161 -74 -78 -109 -106 -165 -134 -65 -33
-196 -110 -255 -151 -14 -9 6 17 44 58 37 41 95 111 128 155 62 84 109 125
223 195 70 43 183 100 198 100 5 0 -11 -28 -35 -62z"/>
</g>
</svg>
